<svg xmlns="http://www.w3.org/2000/svg" width="267.164" height="256" viewBox="0 0 267.164 256">
  <defs>
    <style>
      .cls-1 {
        fill: #e0e0e0;
      }

      .cls-2 {
        fill: #fafafa;
      }

      .cls-3 {
        fill: #ebebeb;
      }

      .cls-4 {
        fill: #f5f5f5;
      }

      .cls-5 {
        fill: #fff;
      }

      .cls-6 {
        fill: #263238;
      }

      .cls-7 {
        fill: #5e24f9;
      }

      .cls-8 {
        opacity: 0.24;
      }

      .cls-9 {
        opacity: 0.3;
      }

      .cls-10 {
        fill: #455a64;
      }

      .cls-11 {
        fill: #ffbe9d;
      }

      .cls-12 {
        fill: #eb996e;
      }
    </style>
  </defs>
  <g id="Work_time-pana_1_" data-name="Work time-pana (1)" transform="translate(-38.379 -40.668)">
    <g id="freepik--background-complete--inject-2" transform="translate(43.915 40.668)">
      <rect id="Rectangle_503" data-name="Rectangle 503" class="cls-1" width="4.646" height="34.783" transform="translate(30.298 230.046) rotate(-90)"/>
      <path id="Path_3604" data-name="Path 3604" class="cls-2" d="M103.922,405.8a11.075,11.075,0,0,1,0,4.356,5.641,5.641,0,0,1-.222-2.175A5.547,5.547,0,0,1,103.922,405.8Z" transform="translate(-68.88 -180.215)"/>
      <path id="Path_3605" data-name="Path 3605" class="cls-2" d="M102.7,405.65a11.075,11.075,0,0,1,0,4.356,11.075,11.075,0,0,1,0-4.356Z" transform="translate(-68.413 -180.157)"/>
      <path id="Path_3606" data-name="Path 3606" class="cls-2" d="M148.2,405.8a10.773,10.773,0,0,1,0,4.356,5.572,5.572,0,0,1-.216-2.175A5.758,5.758,0,0,1,148.2,405.8Z" transform="translate(-85.803 -180.215)"/>
      <path id="Path_3607" data-name="Path 3607" class="cls-2" d="M146.972,405.65a11.074,11.074,0,0,1,0,4.356,5.66,5.66,0,0,1-.222-2.181A5.478,5.478,0,0,1,146.972,405.65Z" transform="translate(-85.333 -180.157)"/>
      <path id="Path_3608" data-name="Path 3608" class="cls-2" d="M128.743,409.346c0,.124-3.985.216-8.9.216s-8.9-.093-8.9-.216,3.985-.216,8.9-.216S128.743,409.223,128.743,409.346Z" transform="translate(-71.651 -181.487)"/>
      <rect id="Rectangle_504" data-name="Rectangle 504" class="cls-1" width="9.292" height="34.783" transform="translate(30.15 255.611) rotate(-90)"/>
      <path id="Path_3609" data-name="Path 3609" class="cls-2" d="M131.418,446.524a1.105,1.105,0,0,1-.185.105c-.13.062-.321.154-.581.266a9.995,9.995,0,0,1-2.36.673,6.128,6.128,0,0,1-3.824-.544,5.029,5.029,0,0,1-1.816-1.643,3.837,3.837,0,0,1-.618-2.675,2.824,2.824,0,0,1,.618-1.384,1.8,1.8,0,0,1,1.464-.667,2.1,2.1,0,0,1,1.477.791,2.9,2.9,0,0,1,.673,1.588,4.226,4.226,0,0,1-1.2,3.293,5.314,5.314,0,0,1-3.342,1.637,8.983,8.983,0,0,1-3.88-.482,7.179,7.179,0,0,1-3.392-2.28,3.707,3.707,0,0,1-.791-2.008,2.613,2.613,0,0,1,.741-2.088,1.717,1.717,0,0,1,1.087-.476,1.983,1.983,0,0,1,1.137.321,2.984,2.984,0,0,1,1.279,1.853,4.374,4.374,0,0,1-1.372,4.1,6.834,6.834,0,0,1-3.917,1.594,9.645,9.645,0,0,1-4.059-.4,5.61,5.61,0,0,1-3.089-2.4,4.1,4.1,0,0,1-.383-3.707,1.921,1.921,0,0,1,1.415-1.2,2.249,2.249,0,0,1,1.755.42,2.9,2.9,0,0,1,.828,3.132,5.424,5.424,0,0,1-1.755,2.471,7.846,7.846,0,0,1-4.77,1.854,7.618,7.618,0,0,1-5.746-2.317,5.971,5.971,0,0,1-.42-.482,1.232,1.232,0,0,1-.124-.179,8.9,8.9,0,0,0,2.589,1.971,7.568,7.568,0,0,0,3.707.766,7.685,7.685,0,0,0,4.584-1.853,5.146,5.146,0,0,0,1.631-2.335,2.558,2.558,0,0,0-.723-2.743,1.9,1.9,0,0,0-1.464-.346,1.538,1.538,0,0,0-1.137.988,3.707,3.707,0,0,0,.377,3.33,5.208,5.208,0,0,0,2.879,2.212,9.268,9.268,0,0,0,3.88.371,6.469,6.469,0,0,0,3.67-1.489,3.96,3.96,0,0,0,1.236-3.707,2.576,2.576,0,0,0-1.081-1.6,1.328,1.328,0,0,0-1.7.1,2.175,2.175,0,0,0-.618,1.742,3.3,3.3,0,0,0,.7,1.779,6.8,6.8,0,0,0,3.182,2.144,8.65,8.65,0,0,0,3.707.476,4.943,4.943,0,0,0,3.089-1.5,3.855,3.855,0,0,0,1.118-3,2.212,2.212,0,0,0-1.8-2.082,1.5,1.5,0,0,0-1.2.544,2.52,2.52,0,0,0-.575,1.236,3.515,3.515,0,0,0,.562,2.471,4.825,4.825,0,0,0,1.7,1.588,6.017,6.017,0,0,0,3.707.587,11.119,11.119,0,0,0,2.348-.587C131.146,446.622,131.412,446.505,131.418,446.524Z" transform="translate(-66.04 -193.525)"/>
      <rect id="Rectangle_505" data-name="Rectangle 505" class="cls-3" width="16.125" height="31.676" transform="translate(33.257 246.301) rotate(-90)"/>
      <path id="Path_3610" data-name="Path 3610" class="cls-1" d="M109.552,414.13a140.9,140.9,0,0,1,0,15.606,70.145,70.145,0,0,1-.222-7.8A68.391,68.391,0,0,1,109.552,414.13Z" transform="translate(-71.031 -183.398)"/>
      <path id="Path_3611" data-name="Path 3611" class="cls-1" d="M113.442,413.8a137.355,137.355,0,0,1,0,15.408,68.4,68.4,0,0,1-.222-7.7A66.687,66.687,0,0,1,113.442,413.8Z" transform="translate(-72.518 -183.272)"/>
      <path id="Path_3612" data-name="Path 3612" class="cls-1" d="M146.512,413a152.374,152.374,0,0,1,0,16.23,75.859,75.859,0,0,1-.222-8.112A74.12,74.12,0,0,1,146.512,413Z" transform="translate(-85.157 -182.966)"/>
      <path id="Path_3613" data-name="Path 3613" class="cls-1" d="M141.942,413.32a144.48,144.48,0,0,1,0,15.8,71.908,71.908,0,0,1-.222-7.9A70.119,70.119,0,0,1,141.942,413.32Z" transform="translate(-83.41 -183.089)"/>
      <path id="Path_3614" data-name="Path 3614" class="cls-3" d="M415.639,355.259a17.4,17.4,0,0,1,10.8-1.316,8.965,8.965,0,0,1,5.332,2.385c1.335,1.477,1.582,4.059.056,5.319a5.084,5.084,0,0,1-3.367.853c-2.854-.031-6.017-.531-8.3,1.186-1.3.976-2.169,2.607-3.707,3.089a3.645,3.645,0,0,1-4.041-1.8,6.277,6.277,0,0,1-.457-4.64A7.074,7.074,0,0,1,415.639,355.259Z" transform="translate(-186.594 -160.28)"/>
      <path id="Path_3615" data-name="Path 3615" class="cls-3" d="M404.717,314.341c2.008,2.867,5.913,1.915,7.723.167s2.576-4.288,3.268-6.71c1.594-5.523,3.194-11.325,2.014-16.953a9.36,9.36,0,0,0-2.169-4.609,4.943,4.943,0,0,0-4.665-1.557c-1.965.525-3.188,2.471-4.071,4.281a40.479,40.479,0,0,0-4,17.348c0,2.793.321,5.721,1.9,8.032" transform="translate(-183.198 -133.888)"/>
      <path id="Path_3616" data-name="Path 3616" class="cls-3" d="M382.693,324.158a10.433,10.433,0,0,0,1.625-9.6,18.523,18.523,0,0,0-5.69-8.254,30.625,30.625,0,0,0-10.188-6.011,10.917,10.917,0,0,0-4.578-.778,4.8,4.8,0,0,0-3.843,2.329c-1.075,2.045-.043,4.522,1.069,6.549a78.117,78.117,0,0,0,6.685,10.182c2.008,2.589,4.325,5.14,7.358,6.308s6.234,1.026,7.852-1.094" transform="translate(-166.667 -139.589)"/>
      <path id="Path_3617" data-name="Path 3617" class="cls-1" d="M405.649,386.448a6.448,6.448,0,0,0,.185-1.3c.093-.945.2-2.138.346-3.552a51.99,51.99,0,0,1,.8-5.221,40.067,40.067,0,0,1,1.9-6.178,22.861,22.861,0,0,1,3.145-5.56,11.739,11.739,0,0,1,3.973-3.305,11.41,11.41,0,0,1,3.349-1.044,5.911,5.911,0,0,0,1.3-.185,6.049,6.049,0,0,0-1.322,0,10.152,10.152,0,0,0-3.491.908,11.739,11.739,0,0,0-4.189,3.33,22.19,22.19,0,0,0-3.262,5.684,37.607,37.607,0,0,0-1.853,6.258,45.144,45.144,0,0,0-.7,5.282c-.111,1.508-.154,2.731-.173,3.577a6.228,6.228,0,0,0,0,1.31Z" transform="translate(-184.266 -162.734)"/>
      <path id="Path_3618" data-name="Path 3618" class="cls-1" d="M405.9,361.956a2.575,2.575,0,0,0,.037-.618v-1.73c0-1.5,0-3.67.074-6.351.136-5.363.618-11.121,1.489-19.276.846-7.649,1.977-16.558,3.176-22.347.253-1.316.513-2.5.76-3.54s.426-1.934.618-2.657.3-1.236.4-1.68a3.481,3.481,0,0,0,.111-.618,2.34,2.34,0,0,0-.21.568c-.136.432-.3.982-.507,1.656s-.451,1.606-.71,2.644-.556,2.218-.834,3.534a195.855,195.855,0,0,0-3.342,20.734c-.89,8.155-1.291,15.581-1.328,20.956-.031,2.688,0,4.862.093,6.364.043.7.08,1.279.105,1.73a2.555,2.555,0,0,0,.068.63Z" transform="translate(-184.268 -140.98)"/>
      <path id="Path_3619" data-name="Path 3619" class="cls-1" d="M394.285,350.364a11.511,11.511,0,0,0,0-1.8c-.068-1.161-.229-2.842-.556-4.893a64.381,64.381,0,0,0-1.588-7.13,58.9,58.9,0,0,0-2.984-8.439,44.9,44.9,0,0,0-8.755-13.635,23.416,23.416,0,0,0-2.064-1.915c-.315-.266-.618-.531-.877-.741l-.8-.55a10.946,10.946,0,0,0-1.526-.976,53.174,53.174,0,0,1,4.986,4.448,47.325,47.325,0,0,1,8.538,13.592,66.207,66.207,0,0,1,2.984,8.353c.785,2.62,1.3,5.029,1.7,7.056s.587,3.707.717,4.85A11.179,11.179,0,0,0,394.285,350.364Z" transform="translate(-172.617 -143.709)"/>
      <path id="Path_3620" data-name="Path 3620" class="cls-3" d="M382.17,412.53l1.44,19.659h25.25l1.44-19.659Z" transform="translate(-175.306 -182.787)"/>
      <rect id="Rectangle_506" data-name="Rectangle 506" class="cls-3" width="33.578" height="7.747" transform="translate(204.424 221.996)"/>
      <path id="Path_3621" data-name="Path 3621" class="cls-1" d="M378.22,443.13v2.15h33.029v-2.15Z" transform="translate(-173.796 -194.481)"/>
      <path id="Path_3622" data-name="Path 3622" class="cls-1" d="M382.325,450l-1.545-3.775h30.242l-1.8,3.775Z" transform="translate(-174.774 -195.666)"/>
      <path id="Path_3623" data-name="Path 3623" class="cls-4" d="M410.1,421.245a.808.808,0,0,1-.117.179c-.105.136-.229.3-.377.5l-1.477,1.884-.062.086-.062-.093c-.927-1.279-2.162-2.984-3.614-5h.185l-3.559,5.041-.111.154-.124-.148-4.2-5.035h.241l-.229.29-3.756,4.745-.13.161-.111-.167c-1.285-1.81-2.471-3.509-3.565-5.035h.21l-4.387,5-.074.086-.062-.1-1.372-2.3c-.148-.253-.259-.457-.352-.618a1.014,1.014,0,0,1-.111-.216,1,1,0,0,1,.148.192l.389.618,1.44,2.267h-.136l4.325-5.06.105-.124.1.136,3.6,5.017h-.247l3.769-4.739.229-.3.124-.148.124.148,4.207,5.029h-.235l3.6-5.017.105-.148.1.148,3.54,5.054h-.13c.649-.778,1.155-1.39,1.532-1.853l.408-.476C410.049,421.288,410.1,421.238,410.1,421.245Z" transform="translate(-175.581 -185.076)"/>
      <path id="Path_3624" data-name="Path 3624" class="cls-4" d="M410.781,412.224c0,.087-6.333.154-14.136.154s-14.136-.068-14.136-.154,6.326-.154,14.136-.154S410.781,412.138,410.781,412.224Z" transform="translate(-175.436 -182.611)"/>
      <path id="Path_3625" data-name="Path 3625" class="cls-1" d="M162.331,73.365a.393.393,0,0,1-.148-.043l-.408-.161-1.557-.649L154.5,70.041l-18.782-8.18-.655-.29h.136l-18.4,7.9-5.56,2.335-1.52.618a3.243,3.243,0,0,1-.538.192,3.636,3.636,0,0,1,.513-.253l1.5-.68,5.56-2.44L135.11,61.28h.136l.655.284,18.745,8.279,5.665,2.539,1.532.71.4.192A.527.527,0,0,1,162.331,73.365Z" transform="translate(-70.974 -48.546)"/>
      <rect id="Rectangle_507" data-name="Rectangle 507" class="cls-1" width="120.654" height="90.344" transform="translate(0 22.125)"/>
      <rect id="Rectangle_508" data-name="Rectangle 508" class="cls-2" width="112.672" height="82.429" transform="translate(4.22 26.327)"/>
      <path id="Path_3626" data-name="Path 3626" class="cls-1" d="M94.45,141.57s.117,13.833.822,18.059l17.355-.822s-1.52-13.592-.933-17.237Z" transform="translate(-65.345 -79.231)"/>
      <path id="Path_3627" data-name="Path 3627" class="cls-5" d="M105.9,144.711h.253a4.109,4.109,0,0,1,.723.037,4.052,4.052,0,0,1,1.1.327,3.651,3.651,0,0,1,1.2.951,4.084,4.084,0,0,1,.834,1.668,4.028,4.028,0,0,1-.179,2.144,6.412,6.412,0,0,1-.488,1.075,9.887,9.887,0,0,0-.556,1.081,9.465,9.465,0,0,0-.7,2.471v.056h-3.633v-.062a5.134,5.134,0,0,0-.834-2.372c-.21-.358-.439-.686-.618-1.026a10.5,10.5,0,0,1-.618-.995,3.367,3.367,0,0,1-.272-2.113,4.467,4.467,0,0,1,.673-1.73,3.392,3.392,0,0,1,1.124-1.019,4.652,4.652,0,0,1,1.779-.525h0a4.76,4.76,0,0,0-.7.136,4.275,4.275,0,0,0-1.044.426,3.262,3.262,0,0,0-1.094,1.007,4.486,4.486,0,0,0-.618,1.7,3.237,3.237,0,0,0,.272,2.045,11.439,11.439,0,0,0,.618.982c.216.327.445.667.655,1.026a5.165,5.165,0,0,1,.859,2.434l-.068-.068h3.515l-.068.062a9.546,9.546,0,0,1,.717-2.5,11.386,11.386,0,0,1,.568-1.094,6.42,6.42,0,0,0,.482-1.05,3.941,3.941,0,0,0,.192-2.082,4.139,4.139,0,0,0-.8-1.637,3.614,3.614,0,0,0-1.168-.945,3.9,3.9,0,0,0-1.081-.34,5.469,5.469,0,0,0-.71-.062h-.192C105.929,144.717,105.9,144.717,105.9,144.711Z" transform="translate(-68.248 -80.419)"/>
      <path id="Path_3628" data-name="Path 3628" class="cls-5" d="M107.911,156.407a.4.4,0,0,1,0-.056v-.161c0-.142-.056-.352-.093-.618-.08-.544-.2-1.322-.272-2.292,0-.241-.037-.494-.043-.76a7.47,7.47,0,0,1,0-.834,2.28,2.28,0,0,1,.192-.865,1.316,1.316,0,0,1,.667-.661.871.871,0,0,1,.945.179.618.618,0,0,1,.2.476.84.84,0,0,1-.173.494,1.174,1.174,0,0,1-.42.34,2.163,2.163,0,0,1-.513.167,6.58,6.58,0,0,1-2.2.074,1.959,1.959,0,0,1-.525-.148,1.353,1.353,0,0,1-.432-.309,1,1,0,0,1-.253-.47.772.772,0,0,1,.062-.513.68.68,0,0,1,.365-.352.618.618,0,0,1,.488,0,.908.908,0,0,1,.371.309,1.328,1.328,0,0,1,.185.432,5.627,5.627,0,0,1,.087.89l.087,1.588c.043.97.086,1.755.111,2.3v.834a.384.384,0,0,0,0-.056v-.161a4.731,4.731,0,0,0-.037-.618c0-.55-.08-1.334-.136-2.3,0-.482-.056-1.013-.087-1.588a4.813,4.813,0,0,0-.093-.877,1.161,1.161,0,0,0-.173-.414.964.964,0,0,0-.352-.3.575.575,0,0,0-.451,0,.649.649,0,0,0-.34.327.754.754,0,0,0-.056.482,1,1,0,0,0,.241.439,1.582,1.582,0,0,0,.927.445,6.427,6.427,0,0,0,1.094.049,6.3,6.3,0,0,0,1.087-.124,1.989,1.989,0,0,0,.5-.167,1.143,1.143,0,0,0,.4-.321.816.816,0,0,0,.167-.463.618.618,0,0,0-.185-.439.84.84,0,0,0-.89-.173,1.236,1.236,0,0,0-.618.618,2.311,2.311,0,0,0-.192.853c0,.284,0,.556,0,.822a4.446,4.446,0,0,0,.043.766c.074.97.185,1.748.253,2.286.037.272.068.476.087.618v.161a.383.383,0,0,1-.025.086Z" transform="translate(-69.365 -82.471)"/>
      <path id="Path_3629" data-name="Path 3629" class="cls-5" d="M106,160.406a4.723,4.723,0,0,1,.049.575q0,.618.074,1.5v-.037l1.174,1.365h-.062l1.353-.074h-.056l.667-.816.34-.414v.056c0-.8-.037-1.545-.049-2.224l.074.068H106a.852.852,0,0,1,.241,0l.71-.037,2.57-.1h.074v.074c0,.686.043,1.433.068,2.224v.006h0c-.111.136-.222.278-.34.414l-.673.822h-.037l-1.353.068h-.025l-1.149-1.365h0v-1.545A4.812,4.812,0,0,1,106,160.406Z" transform="translate(-69.759 -86.378)"/>
      <path id="Path_3630" data-name="Path 3630" class="cls-5" d="M109.567,163.381a.259.259,0,0,1-.13-.056,3.6,3.6,0,0,0-.352-.136,3.361,3.361,0,0,0-1.236-.185,3.429,3.429,0,0,0-1.236.259l-.34.161-.124.062a.377.377,0,0,1,.111-.08,3.158,3.158,0,0,1,.34-.179,3.244,3.244,0,0,1,1.236-.278,3.144,3.144,0,0,1,1.236.2,2.472,2.472,0,0,1,.346.154Z" transform="translate(-69.816 -87.401)"/>
      <path id="Path_3631" data-name="Path 3631" class="cls-5" d="M109.56,162.508l-.124-.056-.352-.142a3.528,3.528,0,0,0-1.236-.185,3.707,3.707,0,0,0-1.236.259c-.148.062-.259.117-.34.161l-.124.062.111-.08a2.409,2.409,0,0,1,.34-.173,3.237,3.237,0,0,1,1.236-.284,3.385,3.385,0,0,1,1.236.2c.148.062.266.117.346.161A.969.969,0,0,1,109.56,162.508Z" transform="translate(-69.816 -87.065)"/>
      <path id="Path_3632" data-name="Path 3632" class="cls-5" d="M109.51,161.672l-.124-.049c-.086-.037-.2-.093-.352-.142a3.54,3.54,0,0,0-1.236-.185,3.391,3.391,0,0,0-1.236.259c-.148.062-.259.117-.34.161l-.124.062.111-.08a2.65,2.65,0,0,1,.34-.179,3.373,3.373,0,0,1,1.236-.278,3.41,3.41,0,0,1,1.236.2,2.745,2.745,0,0,1,.346.161A.4.4,0,0,1,109.51,161.672Z" transform="translate(-69.797 -86.748)"/>
      <path id="Path_3633" data-name="Path 3633" class="cls-3" d="M63.17,105s.117,13.839.822,18.059l17.355-.822S79.82,108.645,80.407,105Z" transform="translate(-53.39 -65.254)"/>
      <path id="Path_3634" data-name="Path 3634" class="cls-5" d="M79.632,114.349a50.4,50.4,0,0,1-5.814.519,47.7,47.7,0,0,1-5.838.179,52.108,52.108,0,0,1,5.814-.519,50.87,50.87,0,0,1,5.838-.179Z" transform="translate(-55.228 -68.82)"/>
      <path id="Path_3635" data-name="Path 3635" class="cls-5" d="M79.636,119.089a49.159,49.159,0,0,1-5.814.525,50.763,50.763,0,0,1-5.832.179,50.21,50.21,0,0,1,5.814-.519A50.042,50.042,0,0,1,79.636,119.089Z" transform="translate(-55.232 -70.632)"/>
      <path id="Path_3636" data-name="Path 3636" class="cls-5" d="M77.965,123.708a16.534,16.534,0,0,1-3.312.371,16.417,16.417,0,0,1-3.324,0,16.507,16.507,0,0,1,3.305-.371A16.463,16.463,0,0,1,77.965,123.708Z" transform="translate(-56.509 -72.372)"/>
      <path id="Path_3637" data-name="Path 3637" class="cls-3" d="M61.84,170.85s.117,13.833.822,18.059l17.355-.822S78.49,174.5,79.077,170.85Z" transform="translate(-52.882 -90.421)"/>
      <path id="Path_3638" data-name="Path 3638" class="cls-5" d="M78.306,180.239a49.532,49.532,0,0,1-5.814.525,50.787,50.787,0,0,1-5.832.179,50,50,0,0,1,5.808-.519,50.137,50.137,0,0,1,5.838-.185Z" transform="translate(-54.724 -94.003)"/>
      <path id="Path_3639" data-name="Path 3639" class="cls-5" d="M78.306,184.989a50.041,50.041,0,0,1-5.814.519,50.753,50.753,0,0,1-5.832.179,50.211,50.211,0,0,1,5.814-.519,50.766,50.766,0,0,1,5.832-.179Z" transform="translate(-54.724 -95.818)"/>
      <path id="Path_3640" data-name="Path 3640" class="cls-5" d="M76.635,189.614a16.261,16.261,0,0,1-3.305.365,16.464,16.464,0,0,1-3.33.031,16.508,16.508,0,0,1,3.305-.371,16.174,16.174,0,0,1,3.33-.025Z" transform="translate(-56 -97.564)"/>
      <path id="Path_3641" data-name="Path 3641" class="cls-3" d="M138.61,110.89l1.718,39.911,49.821.6-2.237-39.985Z" transform="translate(-82.222 -67.506)"/>
      <rect id="Rectangle_509" data-name="Rectangle 509" class="cls-4" width="49.493" height="37.372" transform="translate(55.808 43.1)"/>
      <path id="Path_3642" data-name="Path 3642" class="cls-1" d="M187.053,147.706v-2.688c0-1.755,0-4.325-.037-7.562,0-6.518-.043-15.841-.074-27.122l.142.136H137.6l.173-.167v37.372l-.154-.154,35.7.074,10.157.043H186.2l-2.718.117-10.114.043-35.833.074h-.154V110.18h49.809v.142c0,11.312-.056,20.672-.074,27.184,0,3.244,0,5.783-.037,7.531V147C187.065,147.484,187.053,147.706,187.053,147.706Z" transform="translate(-81.752 -67.234)"/>
      <rect id="Rectangle_510" data-name="Rectangle 510" class="cls-4" width="20.061" height="25.25" transform="translate(61.782 51.015)"/>
      <path id="Path_3643" data-name="Path 3643" class="cls-1" d="M167.331,148.389a.413.413,0,0,1,0-.13v-1.736c0-1.236,0-2.972-.037-5.184,0-4.442-.049-10.732-.08-18.2l.154.154H147.307c-.043,0,.321-.321.167-.167h0v25.238l-.136-.142,14.525.074,4.071.037H167.4a2.422,2.422,0,0,1-.352,0H166l-4.047.037-14.611.074H147.2V123.151h0c-.154.148.2-.216.173-.173h20.215v.154c-.031,7.507-.062,13.833-.08,18.3l-.037,5.146v1.693a.758.758,0,0,1-.136.117Z" transform="translate(-85.488 -72.124)"/>
      <rect id="Rectangle_511" data-name="Rectangle 511" class="cls-4" width="38.447" height="3.639" transform="translate(62.548 45.238)"/>
      <path id="Path_3644" data-name="Path 3644" class="cls-1" d="M186.943,117.357V116.4c0-.618,0-1.526-.043-2.681l.068.068c-6.481.062-21.259.105-38.447.105h0c.34-.346.093-.1.173-.173h0v3.627l-.167-.173,27.252.074,8.18.049h2.811a1.373,1.373,0,0,1,.2,0h-2.928l-8.143.056-27.376.068h-.167v-3.806h0l.173-.173h0c17.188,0,31.966.043,38.447.105h.074v.068c0,1.168,0,2.082-.037,2.725v.686A.982.982,0,0,1,186.943,117.357Z" transform="translate(-85.948 -68.48)"/>
      <rect id="Rectangle_512" data-name="Rectangle 512" class="cls-4" width="16.7" height="15.217" transform="translate(84.295 51.015)"/>
      <path id="Path_3645" data-name="Path 3645" class="cls-1" d="M200.4,138.3V137.18c0-.741,0-1.785-.037-3.089,0-2.681-.043-6.456-.074-11l.142.148H183.752l.167-.167h0v15.211l-.154-.148,12.047.074,3.417.043h.914a1.908,1.908,0,0,1,.321,0,1.583,1.583,0,0,1-.29,0h-.883l-3.379.037-12.146.074h-.148V123h0c-.154.148.2-.21.173-.173h16.829v.142c-.031,4.578-.056,8.39-.074,11.121,0,1.3-.031,2.329-.037,3.089v.8A1.236,1.236,0,0,1,200.4,138.3Z" transform="translate(-99.407 -72.067)"/>
      <rect id="Rectangle_513" data-name="Rectangle 513" class="cls-4" width="16.7" height="7.649" transform="translate(84.295 68.616)"/>
      <path id="Path_3646" data-name="Path 3646" class="cls-1" d="M200.405,159.2v-.556l-.031-1.532c0-1.353-.037-3.237-.068-5.56l.124.124-16.681.049c-.154.154.2-.21.167-.167h0V159.2l-.167-.161,11.942.074,3.484.049h1.273a1.618,1.618,0,0,1-.3,0h-.908l-3.441.049-12.054.074h-.161v-7.8h0c-.037,0,.321-.327.173-.173l16.681.043h.08v.124c0,2.354-.049,4.269-.062,5.635v1.507a3.021,3.021,0,0,1-.056.581Z" transform="translate(-99.41 -82.939)"/>
      <path id="Path_3647" data-name="Path 3647" class="cls-5" d="M166.9,123.31c-6.215,8.581-13.357,16.626-19.566,25.207" transform="translate(-85.554 -72.252)"/>
      <path id="Path_3648" data-name="Path 3648" class="cls-1" d="M147.34,148.517a1.926,1.926,0,0,1,.161-.284l.525-.766c.457-.667,1.143-1.613,2.008-2.768,1.724-2.323,4.189-5.462,6.957-8.89s5.258-6.543,7.025-8.822l2.094-2.7.575-.735c.136-.161.21-.247.222-.241a1.471,1.471,0,0,1-.167.284l-.525.766c-.457.667-1.143,1.613-2.008,2.774-1.724,2.317-4.189,5.455-6.957,8.884s-5.251,6.543-7.025,8.822l-2.094,2.706-.575.729A1.39,1.39,0,0,1,147.34,148.517Z" transform="translate(-85.558 -72.252)"/>
      <line id="Line_2" data-name="Line 2" class="cls-5" x2="20.061" y2="25.25" transform="translate(61.782 51.015)"/>
      <path id="Path_3649" data-name="Path 3649" class="cls-1" d="M167.407,148.49c-.074.056-4.627-5.56-10.163-12.517s-9.972-12.671-9.885-12.733,4.621,5.56,10.163,12.523S167.482,148.422,167.407,148.49Z" transform="translate(-85.565 -72.225)"/>
      <path id="Path_3650" data-name="Path 3650" class="cls-1" d="M137.507,121.389a3.139,3.139,0,1,1-3.139-3.139A3.139,3.139,0,0,1,137.507,121.389Z" transform="translate(-79.401 -70.318)"/>
      <path id="Path_3651" data-name="Path 3651" class="cls-1" d="M220.6,109.059a3.139,3.139,0,1,1-3.139-3.139,3.139,3.139,0,0,1,3.139,3.139Z" transform="translate(-111.157 -65.606)"/>
      <rect id="Rectangle_514" data-name="Rectangle 514" class="cls-1" width="36.167" height="52.428" transform="translate(196.046 65.311)"/>
      <rect id="Rectangle_515" data-name="Rectangle 515" class="cls-4" width="36.167" height="52.428" transform="translate(194.236 65.311)"/>
      <rect id="Rectangle_516" data-name="Rectangle 516" class="cls-5" width="27.184" height="41.073" transform="translate(198.728 70.989)"/>
      <path id="Path_3652" data-name="Path 3652" class="cls-1" d="M396.138,196.532v-11.5c0-7.241,0-17.5-.043-29.575l.093.093H368.954l.1-.1v41.073l-.08-.08,19.77.043h.049l-19.832.037h-.08V155.28h27.345v.086c0,12.1-.031,22.377-.043,29.655v11.244Z" transform="translate(-170.227 -84.471)"/>
      <path id="Path_3653" data-name="Path 3653" class="cls-1" d="M417.4,146.38a5.667,5.667,0,0,1-.618.939c-.42.562-1.019,1.322-1.7,2.15s-1.316,1.557-1.786,2.082a6.075,6.075,0,0,1-.8.809,7.081,7.081,0,0,1,.692-.9l1.742-2.113,1.736-2.113A7.669,7.669,0,0,1,417.4,146.38Z" transform="translate(-186.897 -81.069)"/>
      <path id="Path_3654" data-name="Path 3654" class="cls-5" d="M413.22,221.83a33.462,33.462,0,0,0,4.739,5.931" transform="translate(-187.172 -109.905)"/>
      <path id="Path_3655" data-name="Path 3655" class="cls-1" d="M417.959,227.761a5.054,5.054,0,0,1-.822-.754,25.945,25.945,0,0,1-1.792-2.014,26.723,26.723,0,0,1-1.575-2.187,5.262,5.262,0,0,1-.55-.976,8.037,8.037,0,0,1,.667.9c.4.562.958,1.322,1.612,2.144s1.279,1.532,1.736,2.045a7.137,7.137,0,0,1,.723.846Z" transform="translate(-187.172 -109.905)"/>
      <path id="Path_3656" data-name="Path 3656" class="cls-5" d="M361.72,227.555l4.739-5.845" transform="translate(-167.49 -109.859)"/>
      <path id="Path_3657" data-name="Path 3657" class="cls-1" d="M366.443,221.71c.037,0-.989,1.372-2.292,2.984a35.7,35.7,0,0,1-2.471,2.861,71.6,71.6,0,0,1,4.739-5.845Z" transform="translate(-167.475 -109.859)"/>
      <path id="Path_3658" data-name="Path 3658" class="cls-1" d="M361.73,146.38a35.655,35.655,0,0,1,2.3,2.749A32.41,32.41,0,0,1,366.172,152a34.065,34.065,0,0,1-2.3-2.768A30.979,30.979,0,0,1,361.73,146.38Z" transform="translate(-167.494 -81.069)"/>
      <rect id="Rectangle_517" data-name="Rectangle 517" class="cls-1" width="9.1" height="25.843" transform="translate(208.341 79.329)"/>
      <rect id="Rectangle_518" data-name="Rectangle 518" class="cls-1" width="5.177" height="25.763" transform="matrix(1, -0.005, 0.005, 1, 218.702, 9.632)"/>
      <rect id="Rectangle_519" data-name="Rectangle 519" class="cls-3" width="13.407" height="14.222" transform="matrix(1, -0.005, 0.005, 1, 173.849, 9.745)"/>
      <rect id="Rectangle_520" data-name="Rectangle 520" class="cls-4" width="13.407" height="14.222" transform="matrix(1, -0.005, 0.005, 1, 187.187, 9.679)"/>
      <path id="Path_3659" data-name="Path 3659" class="cls-1" d="M328.684,62.557c8.909.074,17.843,0,26.752-.124a.142.142,0,0,0,0-.284q-13.376-.074-26.752.161a.124.124,0,1,0,0,.247Z" transform="translate(-154.817 -48.871)"/>
      <rect id="Rectangle_521" data-name="Rectangle 521" class="cls-3" width="24.361" height="11.59" transform="matrix(1, -0.005, 0.005, 1, 165.486, 23.796)"/>
      <rect id="Rectangle_522" data-name="Rectangle 522" class="cls-4" width="24.361" height="11.59" transform="matrix(1, -0.005, 0.005, 1, 189.734, 23.665)"/>
      <path id="Path_3660" data-name="Path 3660" class="cls-1" d="M315.144,84.057c16.187.185,32.423,0,48.6-.241a.142.142,0,0,0,0-.284c-16.187-.086-32.423-.074-48.6.278a.124.124,0,0,0,0,.247Z" transform="translate(-149.642 -57.033)"/>
      <rect id="Rectangle_523" data-name="Rectangle 523" class="cls-1" width="94.378" height="4.152" transform="translate(156.395 35.39)"/>
      <rect id="Rectangle_524" data-name="Rectangle 524" class="cls-1" width="3.83" height="14.167" transform="translate(171.846 37.385)"/>
      <rect id="Rectangle_525" data-name="Rectangle 525" class="cls-1" width="3.83" height="14.167" transform="translate(229.038 37.385)"/>
      <rect id="Rectangle_526" data-name="Rectangle 526" class="cls-3" width="5.177" height="35.432" transform="matrix(1, -0.005, 0.005, 1, 223.753, 0.028)"/>
      <rect id="Rectangle_527" data-name="Rectangle 527" class="cls-4" width="8.044" height="28.716" transform="matrix(1, -0.005, 0.005, 1, 228.978, 6.641)"/>
      <path id="Path_3661" data-name="Path 3661" class="cls-1" d="M425.922,60.226a56.994,56.994,0,0,1-8.032,0,59.576,59.576,0,0,1,8.032,0Z" transform="translate(-188.957 -48.091)"/>
      <path id="Path_3662" data-name="Path 3662" class="cls-1" d="M425.922,58.276a56.992,56.992,0,0,1-8.032,0A59.578,59.578,0,0,1,425.922,58.276Z" transform="translate(-188.957 -47.346)"/>
      <path id="Path_3663" data-name="Path 3663" class="cls-1" d="M425.922,90.756a56.994,56.994,0,0,1-8.032,0A59.576,59.576,0,0,1,425.922,90.756Z" transform="translate(-188.957 -59.759)"/>
      <path id="Path_3664" data-name="Path 3664" class="cls-1" d="M425.922,88.806a56.992,56.992,0,0,1-8.032,0A59.576,59.576,0,0,1,425.922,88.806Z" transform="translate(-188.957 -59.014)"/>
      <path id="Path_3665" data-name="Path 3665" class="cls-1" d="M424.5,76.627c-.08,0-.142-2.9-.142-6.469s.062-6.469.142-6.469.136,2.9.136,6.469S424.576,76.627,424.5,76.627Z" transform="translate(-191.43 -49.467)"/>
      <rect id="Rectangle_528" data-name="Rectangle 528" class="cls-3" width="8.754" height="21.673" transform="translate(237.051 13.655)"/>
      <path id="Path_3666" data-name="Path 3666" class="cls-2" d="M437.307,86.647a1.853,1.853,0,0,1-1.958-1.952,1.693,1.693,0,0,1,.711-1.464l.2.278a1.4,1.4,0,0,0-.575,1.186,1.625,1.625,0,1,0,3.25,0,1.39,1.39,0,0,0-.581-1.186l.2-.278a1.718,1.718,0,0,1,.7,1.464,1.853,1.853,0,0,1-1.952,1.952Z" transform="translate(-195.628 -56.934)"/>
      <path id="Path_3667" data-name="Path 3667" class="cls-2" d="M438.766,80.464l-.29-.167a2.274,2.274,0,0,0,.463-1.39c0-.809-.29-1.137-.723-1.137-1.124,0-.3,2.558-1.81,2.558-.581,0-1.057-.488-1.057-1.464a2.373,2.373,0,0,1,.377-1.322l.3.173a1.977,1.977,0,0,0-.346,1.155c0,.754.309,1.087.723,1.087,1.155,0,.34-2.558,1.81-2.558.618,0,1.05.544,1.05,1.526A2.391,2.391,0,0,1,438.766,80.464Z" transform="translate(-195.63 -54.706)"/>
      <path id="Path_3668" data-name="Path 3668" class="cls-2" d="M438.766,74.754l-.29-.167a2.274,2.274,0,0,0,.463-1.39c0-.809-.29-1.137-.723-1.137-1.124,0-.3,2.552-1.81,2.552-.581,0-1.057-.482-1.057-1.458a2.373,2.373,0,0,1,.377-1.322l.3.167a2.008,2.008,0,0,0-.346,1.161c0,.754.309,1.087.723,1.087,1.155,0,.34-2.558,1.81-2.558.618,0,1.05.538,1.05,1.52A2.4,2.4,0,0,1,438.766,74.754Z" transform="translate(-195.63 -52.524)"/>
      <circle id="Ellipse_121" data-name="Ellipse 121" class="cls-1" cx="1.489" cy="1.489" r="1.489" transform="translate(224.775 4.573)"/>
      <rect id="Rectangle_529" data-name="Rectangle 529" class="cls-1" width="0.921" height="21.08" transform="translate(225.8 10.152)"/>
    </g>
    <g id="freepik--Floor--inject-2" transform="translate(38.991 295.872)">
      <path id="Path_3669" data-name="Path 3669" class="cls-6" d="M305.922,453.9c0,.087-59.675.161-133.27.161S39.37,454,39.37,453.9s59.663-.161,133.282-.161S305.922,453.826,305.922,453.9Z" transform="translate(-39.37 -453.74)"/>
    </g>
    <g id="freepik--Hourglass--inject-2" transform="translate(99.579 75.922)">
      <path id="Path_3670" data-name="Path 3670" class="cls-2" d="M149.088,110.236c-9.916,15.594-9.267,37.217,1.569,52.187,7.222,9.984,18.053,16.681,26.653,25.491s15.137,21.815,10.6,33.27c-4.621,11.658-18.158,16.4-28.29,23.786a53.466,53.466,0,0,0-12.9,73.039H252s18.5-35.247-5.282-62.116-36.55-27.3-35.673-44.922,13.209-23.335,20.258-29.946,41.394-22.013,21.136-70.8Z" transform="translate(-137.508 -102.507)"/>
      <path id="Path_3671" data-name="Path 3671" class="cls-6" d="M149.017,110.206h27.7l75.658-.056h.08v.074a96.986,96.986,0,0,1,3.954,11.337,65.935,65.935,0,0,1,2.236,12.356A48.95,48.95,0,0,1,257.975,147a42.054,42.054,0,0,1-4.757,12.715,45.563,45.563,0,0,1-3.966,5.752,52.548,52.548,0,0,1-4.85,5.19,70.263,70.263,0,0,1-5.5,4.665c-1.915,1.483-3.917,2.879-5.869,4.362-.976.735-1.853,1.563-2.8,2.391s-1.9,1.6-2.873,2.379c-1.946,1.557-3.911,3.089-5.764,4.813a30.829,30.829,0,0,0-8.649,12.406,30.27,30.27,0,0,0-1.631,7.612c-.056.618-.142,1.3-.167,1.952a17.364,17.364,0,0,0,0,1.965,21.926,21.926,0,0,0,.4,3.917,17.873,17.873,0,0,0,3.126,7.241,39.755,39.755,0,0,0,5.455,5.913c4,3.651,8.242,7.142,12.3,10.911s8.032,7.7,11.862,11.856a70.306,70.306,0,0,1,5.474,6.512,45.368,45.368,0,0,1,4.417,7.358,48.4,48.4,0,0,1,4.535,16.681,61.22,61.22,0,0,1-1.026,17.546,72.081,72.081,0,0,1-2.261,8.612,63.332,63.332,0,0,1-3.336,8.31l-.043.087H146.558l-.043-.068a54.275,54.275,0,0,1-8.816-24.855,52.4,52.4,0,0,1,3.645-25.083,54.615,54.615,0,0,1,13.913-19.881,63.363,63.363,0,0,1,9.5-6.932c3.287-2.039,6.6-3.929,9.737-5.993a44.757,44.757,0,0,0,8.575-6.969,23.515,23.515,0,0,0,5.3-9.193,22.921,22.921,0,0,0,.42-10.262,33.592,33.592,0,0,0-3.256-9.434,46.039,46.039,0,0,0-5.3-8.032,63.449,63.449,0,0,0-6.413-6.691c-4.454-4.1-9.02-7.692-13.122-11.38-2.057-1.853-4-3.707-5.8-5.6a52.975,52.975,0,0,1-4.807-5.925,45.4,45.4,0,0,1-6.024-12.486,46.836,46.836,0,0,1-2.051-11.831c-.086-.914-.049-1.816-.049-2.7s0-1.742.08-2.576.124-1.65.185-2.471.229-1.557.334-2.3a43.976,43.976,0,0,1,4.127-13.085,16.547,16.547,0,0,1,.951-1.853l.76-1.291c.4-.686.618-1.032.618-1.032l-.618,1.05-.735,1.273a18.636,18.636,0,0,0-.939,1.853,44.192,44.192,0,0,0-4.078,13.1c-.105.741-.229,1.507-.321,2.292s-.124,1.606-.185,2.44-.062,1.693-.068,2.57a26.344,26.344,0,0,0,.056,2.694,46.453,46.453,0,0,0,2.07,11.788,45.1,45.1,0,0,0,6.018,12.437,51.958,51.958,0,0,0,4.8,5.894c1.792,1.9,3.738,3.756,5.8,5.56,4.1,3.707,8.649,7.259,13.135,11.368a63.855,63.855,0,0,1,6.462,6.74,46.488,46.488,0,0,1,5.332,8.087,33.721,33.721,0,0,1,3.287,9.5,23.15,23.15,0,0,1-.42,10.373,23.663,23.663,0,0,1-5.35,9.3,45.336,45.336,0,0,1-8.612,7.018c-3.145,2.07-6.462,3.96-9.743,6a63.5,63.5,0,0,0-9.465,6.907,54.405,54.405,0,0,0-13.833,19.77,52.1,52.1,0,0,0-3.614,24.954,54.034,54.034,0,0,0,8.773,24.713l-.124-.068H251.933l-.142.086a62.4,62.4,0,0,0,3.324-8.291,71.756,71.756,0,0,0,2.249-8.575,60.843,60.843,0,0,0,1.019-17.46,47.892,47.892,0,0,0-4.5-16.588,45.417,45.417,0,0,0-4.38-7.309,72.052,72.052,0,0,0-5.449-6.487q-5.715-6.221-11.844-11.837c-4.053-3.763-8.285-7.247-12.295-10.917a40.475,40.475,0,0,1-5.5-5.956,18.231,18.231,0,0,1-3.206-7.333,23.276,23.276,0,0,1-.4-3.973c-.031-.661,0-1.322,0-1.983s.111-1.316.161-1.971a30.693,30.693,0,0,1,1.668-7.655,31.045,31.045,0,0,1,8.73-12.511c1.853-1.718,3.837-3.274,5.783-4.825.976-.778,1.934-1.563,2.867-2.366s1.853-1.668,2.817-2.41c1.965-1.483,3.96-2.879,5.869-4.356a71.143,71.143,0,0,0,5.492-4.64,53.426,53.426,0,0,0,4.825-5.159,46.9,46.9,0,0,0,3.948-5.721,41.772,41.772,0,0,0,4.732-12.628,48.646,48.646,0,0,0,.673-12.974,66.041,66.041,0,0,0-2.218-12.356,98.054,98.054,0,0,0-3.9-11.374l.105.068-75.615-.056H150.821Z" transform="translate(-137.437 -102.477)"/>
      <path id="Path_3672" data-name="Path 3672" class="cls-7" d="M254.329,150.867c15.507,2.552-8.94,30.02-22.785,40.856-8.032,6.271-16.619,13.079-20.425,22.52-4.325,10.713-1.118,22.748-3.207,33.523a1.5,1.5,0,0,1-2.966-.315,119.193,119.193,0,0,0-1.236-21.1c-1.662-9.885-5.455-19.64-12.356-26.875-5.653-5.913-13.061-9.836-19.084-15.359-8.8-8.063-17.836-18.46-18.72-30.36,0,0,16.891-13.592,26.27-11.893,10.96,2.008,21.747,18.918,38.725,16.984C230.357,157.49,236.344,147.914,254.329,150.867Z" transform="translate(-143.595 -114.539)"/>
      <path id="Path_3673" data-name="Path 3673" class="cls-7" d="M253.056,383.2c-.389-3.88-1.427-8.266-4.868-10.1a9.6,9.6,0,0,0-6.907-.389c-2.286.6-4.43,1.643-6.691,2.317a21.914,21.914,0,0,1-13.7-.439c-4.207-1.545-7.815-4.325-11.739-6.537s-8.476-3.83-12.826-2.749c-7.5,1.853-11.4,10.9-18.819,13.079-3.3.964-6.839.42-10.188-.334s-6.716-1.736-10.145-1.606a11.255,11.255,0,0,0-7.377,2.873h0l-.049.056a7.3,7.3,0,0,0-.853,1c-2.3,3.089-2.669,7.185-1.958,10.929a39.061,39.061,0,0,0,4.85,11.782c2.471,4.374,5.289,8.724,9.378,11.64,5.054,3.6,11.4,1.118,17.583,1.606,14.414,1.137,29.921,1.909,44.341.8,7.618-.618,14.754.235,20.8-4.442a24.6,24.6,0,0,0,8.353-13.444A46.193,46.193,0,0,0,253.056,383.2Z" transform="translate(-140.944 -199.861)"/>
      <g id="Group_1371" data-name="Group 1371" class="cls-8" transform="translate(82.632 175.912)">
        <path id="Path_3674" data-name="Path 3674" d="M273.455,382.46a3.984,3.984,0,0,0-.377,4.176c.785,1.26,1.853,2.416,2.187,3.868.537,2.274-.834,4.5-1.853,6.6a21.036,21.036,0,0,0-2.045,12.19,16.582,16.582,0,0,0,6.048,10.645c1.464,1.131,3.367,2.008,5.134,1.452a5.037,5.037,0,0,0,3.089-3.917,15.8,15.8,0,0,0-.161-5.2,80.714,80.714,0,0,1,.618-24.144c.235-1.328.457-2.848-.383-3.9A4.522,4.522,0,0,0,283.495,383c-3.213-1.069-6.679.117-10.009-.513" transform="translate(-271.184 -382.46)"/>
      </g>
      <path id="Path_3675" data-name="Path 3675" class="cls-6" d="M139.829,449.625s-.29-4.831,6.011-7.525H256.584s5.777,2.929,6.487,7.414Z" transform="translate(-138.35 -229.341)"/>
      <path id="Path_3676" data-name="Path 3676" class="cls-6" d="M258.967,106.046l-.179.08-104.133-.667s-.371-.235-.921-.673a3.948,3.948,0,0,1,2.471-7.055l101.075.816A3.948,3.948,0,0,1,258.967,106.046Z" transform="translate(-143.087 -97.73)"/>
      <g id="Group_1372" data-name="Group 1372" class="cls-8" transform="translate(30.183 46.728)">
        <path id="Path_3677" data-name="Path 3677" d="M255.307,174.678c.21.4-.575,1.236-2.064,2.595s-3.707,3.145-6.462,5.387a84.823,84.823,0,0,1-10.5,7.414,42.142,42.142,0,0,1-7.191,3.305,34.05,34.05,0,0,1-4.133,1.143,28.2,28.2,0,0,1-4.467.581,23.848,23.848,0,0,1-8.977-1.236,32.347,32.347,0,0,1-7.216-3.707c-2.076-1.372-3.861-2.731-5.56-4.034s-3.213-2.558-4.584-3.744c-5.468-4.739-8.347-8.223-7.791-8.9s4.448,1.52,10.5,5.227l4.943,3.027c1.773,1.075,3.67,2.267,5.61,3.367a31.409,31.409,0,0,0,6.086,2.749,19.541,19.541,0,0,0,6.7.791,35.5,35.5,0,0,0,13.333-3.843c3.985-1.928,7.593-4.176,10.719-5.931a54.005,54.005,0,0,1,7.735-3.769C253.941,174.418,255.127,174.288,255.307,174.678Z" transform="translate(-186.29 -173.364)"/>
      </g>
      <path id="Path_3678" data-name="Path 3678" class="cls-7" d="M236.161,334.181a1.791,1.791,0,1,1-.086.037" transform="translate(-174.735 -188.048)"/>
      <path id="Path_3679" data-name="Path 3679" class="cls-6" d="M167.515,174.262a2.677,2.677,0,0,1-.371-.371l-1.007-1.1c-.426-.488-.989-1.057-1.563-1.779l-1.965-2.471c-.673-.951-1.433-1.977-2.2-3.089l-1.131-1.8c-.192-.309-.4-.618-.581-.945l-.544-1a41.765,41.765,0,0,1-3.837-9.236,38.923,38.923,0,0,1-1.458-9.885c0-.772.043-1.52.056-2.255a7.737,7.737,0,0,1,.049-1.075c.049-.352.074-.7.111-1.038.08-.68.13-1.341.222-1.971s.222-1.236.327-1.8c.173-1.155.482-2.162.7-3.089.117-.445.21-.865.327-1.236l.34-1.032.476-1.415a2.633,2.633,0,0,1,.185-.488,2.813,2.813,0,0,1-.124.507c-.105.358-.241.834-.42,1.433l-.309,1.032c-.105.377-.192.8-.3,1.236a26.946,26.946,0,0,0-.618,3.089c-.1.568-.2,1.168-.3,1.792s-.13,1.279-.2,1.958a10.074,10.074,0,0,1-.105,1.032c-.037.352,0,.71-.037,1.069,0,.729-.049,1.47-.043,2.236a39.133,39.133,0,0,0,1.44,9.83,42.52,42.52,0,0,0,3.787,9.181c.179.334.358.667.531,1s.389.618.575.939l1.112,1.8c.754,1.137,1.5,2.162,2.156,3.089l1.928,2.471c.556.735,1.106,1.31,1.514,1.816l.964,1.143A4.2,4.2,0,0,1,167.515,174.262Z" transform="translate(-143.331 -108.989)"/>
      <path id="Path_3680" data-name="Path 3680" class="cls-6" d="M167.09,307.76a1.234,1.234,0,0,1,.111-.2l.371-.581c.167-.259.371-.568.618-.939l.389-.618c.154-.2.334-.408.513-.618l1.236-1.483c.476-.513,1.019-1.044,1.594-1.625a41.815,41.815,0,0,1,4.238-3.571c3.281-2.471,7.513-4.943,12.1-7.84a69.19,69.19,0,0,0,6.938-4.887,32.369,32.369,0,0,0,6.221-6.574,31.12,31.12,0,0,0,5.035-16.576,39.213,39.213,0,0,0-2.372-14.086,52.575,52.575,0,0,0-4.09-8.773c-.575-.995-1.044-1.748-1.365-2.261l-.365-.581c-.08-.13-.117-.2-.117-.2a.914.914,0,0,1,.142.185l.4.568c.34.494.828,1.236,1.415,2.23a50.141,50.141,0,0,1,4.2,8.761,39.176,39.176,0,0,1,2.471,14.167,33.365,33.365,0,0,1-.34,4.164,30.427,30.427,0,0,1-.908,4.269,28.926,28.926,0,0,1-3.886,8.322,32.578,32.578,0,0,1-6.289,6.642,70.085,70.085,0,0,1-6.975,4.893c-4.6,2.873-8.841,5.319-12.122,7.772A43.51,43.51,0,0,0,172,301.829c-.575.575-1.124,1.094-1.606,1.6l-1.236,1.452c-.185.222-.365.426-.519.618l-.4.587-.618.921-.4.562A1.446,1.446,0,0,1,167.09,307.76Z" transform="translate(-148.77 -150.704)"/>
      <path id="Path_3681" data-name="Path 3681" class="cls-6" d="M154.538,369.61a1.953,1.953,0,0,1-.136.29l-.445.785c-.2.334-.432.754-.673,1.236s-.55,1.05-.809,1.7c-.136.321-.284.655-.432,1s-.272.729-.42,1.112c-.3.766-.531,1.606-.8,2.471a33.572,33.572,0,0,0-1.094,11.912c.105.914.179,1.792.34,2.595.068.4.124.8.2,1.168s.167.729.247,1.069c.136.686.34,1.285.488,1.816s.3.989.432,1.359l.29.853a1.056,1.056,0,0,1,.08.3,1.173,1.173,0,0,1-.142-.278c-.093-.229-.2-.5-.346-.834a13.319,13.319,0,0,1-.488-1.347c-.167-.531-.383-1.131-.537-1.816-.087-.34-.173-.7-.266-1.069s-.148-.772-.229-1.174c-.173-.816-.259-1.693-.371-2.613a32.337,32.337,0,0,1,1.1-11.986c.278-.89.525-1.736.84-2.5.154-.383.278-.76.439-1.112l.457-1.007c.272-.618.618-1.192.859-1.687a12.81,12.81,0,0,1,.723-1.236l.494-.76C154.464,369.69,154.525,369.6,154.538,369.61Z" transform="translate(-141.963 -201.637)"/>
      <path id="Path_3682" data-name="Path 3682" class="cls-6" d="M246.007,393.649l-.124.086-.383.241-1.5.9-1.087.618c-.408.229-.859.439-1.341.68-.976.47-2.051,1.069-3.324,1.551l-1.977.809c-.686.272-1.433.488-2.187.748-1.5.55-3.169.945-4.905,1.4a57.513,57.513,0,0,1-23.236.618c-1.767-.358-3.447-.667-4.98-1.137-.766-.222-1.52-.4-2.224-.618l-2.014-.735c-1.291-.414-2.4-.951-3.4-1.372-.494-.216-.958-.408-1.372-.618l-1.124-.587-1.545-.822-.4-.222-.13-.08a.326.326,0,0,1,.148.056l.408.192,1.569.766,1.131.556c.42.2.89.377,1.384.587.995.4,2.107.921,3.4,1.316l1.989.723c.7.235,1.458.4,2.224.618,1.526.457,3.2.748,4.943,1.1a58.73,58.73,0,0,0,23.119-.618c1.73-.445,3.392-.822,4.893-1.359.754-.253,1.5-.457,2.181-.729l1.977-.785c1.273-.47,2.354-1.05,3.33-1.5.482-.235.939-.439,1.347-.618l1.1-.618,1.526-.853.4-.21C245.958,393.662,246.007,393.643,246.007,393.649Z" transform="translate(-157.051 -210.824)"/>
      <path id="Path_3683" data-name="Path 3683" class="cls-6" d="M254.755,182a.655.655,0,0,1-.13.117l-.408.334c-.377.3-.9.729-1.575,1.236-1.372,1.087-3.361,2.663-5.875,4.541a84.95,84.95,0,0,1-9.187,6.129,41.39,41.39,0,0,1-5.919,2.725,26.979,26.979,0,0,1-6.833,1.52,25.948,25.948,0,0,1-13.122-2.731,44.52,44.52,0,0,1-5.072-3.015c-1.507-1.063-2.885-2.094-4.1-3.089-2.471-1.965-4.362-3.627-5.7-4.763l-1.526-1.322-.389-.346-.13-.13s.056,0,.148.1l.414.327,1.563,1.273c1.359,1.112,3.3,2.743,5.758,4.683,1.236.97,2.6,1.989,4.115,3.04a45.1,45.1,0,0,0,5.048,2.966,25.855,25.855,0,0,0,12.974,2.675,26.788,26.788,0,0,0,6.753-1.5,41.438,41.438,0,0,0,5.882-2.687,88.855,88.855,0,0,0,9.2-6c2.521-1.853,4.529-3.4,5.931-4.454l1.612-1.236.426-.309A.556.556,0,0,1,254.755,182Z" transform="translate(-159.356 -129.936)"/>
      <g id="Group_1373" data-name="Group 1373" class="cls-8" transform="translate(39.678 185.973)">
        <path id="Path_3684" data-name="Path 3684" d="M201.66,400.787c2.928-2.261,7.043-1.717,10.664-.951s7.266,2,10.929,1.483c2.762-.389,5.295-1.742,8.032-2.335s6.03-.154,7.544,2.187a58.693,58.693,0,0,1-37.149-.383" transform="translate(-201.66 -398.745)"/>
      </g>
    </g>
    <g id="freepik--Character--inject-2" transform="translate(183.116 164.108)">
      <path id="Path_3685" data-name="Path 3685" class="cls-7" d="M333.71,347.1l-13.283-14.9-.136,18.108,4,11.615-39.8,6.9-1.687-31.4-2.867-24.095a6.549,6.549,0,0,1,4.1-6.864L295,302.14l15.445,2.83,6.209,2.36a17.046,17.046,0,0,1,6.759,4.7L342.094,333.4" transform="translate(-275.419 -264.038)"/>
      <path id="Path_3686" data-name="Path 3686" class="cls-5" d="M344,339.256a19.437,19.437,0,0,0,2.243-.161,9.1,9.1,0,0,0,7.482-6.895,20.656,20.656,0,0,0,.34-2.23,2.026,2.026,0,0,1,.056.618,7.533,7.533,0,0,1-.173,1.668,8.921,8.921,0,0,1-7.667,7.074,7.881,7.881,0,0,1-1.674.037A1.919,1.919,0,0,1,344,339.256Z" transform="translate(-299.919 -274.674)"/>
      <path id="Path_3687" data-name="Path 3687" class="cls-6" d="M345.673,361.528c.093,0,.117-6.277.056-14.012s-.192-14.006-.284-14.006-.117,6.271-.056,14.012S345.58,361.528,345.673,361.528Z" transform="translate(-300.436 -276.027)"/>
      <path id="Path_3688" data-name="Path 3688" class="cls-7" d="M316.429,356.8l-24.045-9.681a5.5,5.5,0,0,1-3.429-4.677l-1.761-23.057s.21-9.811-5.919-10.287l-3.466,1.372c-4.5,2.391-5.616,8.952-5,14.012.871,7.191,1.236,17.373,2.206,23.613.8,5.109,3.707,9.6,8.724,10.917l29.618,6.413Z" transform="translate(-272.65 -266.698)"/>
      <path id="Path_3689" data-name="Path 3689" class="cls-6" d="M296.75,331.44a2.99,2.99,0,0,1,.074.525c.037.377.093.883.154,1.52.124,1.353.3,3.256.507,5.591s.445,5.184.717,8.3c.062.785.13,1.582.2,2.4a18.626,18.626,0,0,0,.309,2.471,4.084,4.084,0,0,0,1.2,2.156,8.032,8.032,0,0,0,2.218,1.384c6.629,2.867,12.739,5.239,17.175,6.9l5.27,1.94,1.433.525a3.451,3.451,0,0,1,.488.2,2.962,2.962,0,0,1-.513-.142l-1.452-.47c-1.236-.42-3.089-1.044-5.3-1.853-4.467-1.606-10.583-3.942-17.237-6.8a8.409,8.409,0,0,1-2.3-1.446,4.405,4.405,0,0,1-1.285-2.323,18.016,18.016,0,0,1-.3-2.508c-.068-.822-.13-1.619-.192-2.4-.241-3.089-.463-5.931-.618-8.3s-.309-4.244-.408-5.6c-.043-.618-.074-1.149-.093-1.526A3.141,3.141,0,0,1,296.75,331.44Z" transform="translate(-281.86 -275.236)"/>
      <path id="Path_3690" data-name="Path 3690" class="cls-6" d="M274.435,351.73a1.545,1.545,0,0,1,.043.309l.08.89c.074.822.167,1.928.284,3.274s.3,3.021.544,4.838a46.8,46.8,0,0,0,1.081,5.838,8.79,8.79,0,0,0,1.174,2.786,17,17,0,0,0,1.8,2.206,15.446,15.446,0,0,0,3.849,2.885,14.521,14.521,0,0,0,4.226,1.384,1.237,1.237,0,0,1-.315,0,6.944,6.944,0,0,1-.89-.117,11.682,11.682,0,0,1-3.126-1.056,15.069,15.069,0,0,1-3.954-2.879,16.379,16.379,0,0,1-1.853-2.243,8.972,8.972,0,0,1-1.236-2.873,43.7,43.7,0,0,1-1.069-5.888c-.222-1.853-.371-3.472-.47-4.856s-.154-2.508-.185-3.287v-.9A.993.993,0,0,1,274.435,351.73Z" transform="translate(-273.323 -282.99)"/>
      <path id="Path_3691" data-name="Path 3691" class="cls-6" d="M291.09,374.327a3.559,3.559,0,0,1,.439-1.279,8.291,8.291,0,0,1,4.881-4.17,3.491,3.491,0,0,1,1.335-.229q-.606.253-1.236.445a9.451,9.451,0,0,0-2.725,1.625,9.571,9.571,0,0,0-2.033,2.434C291.319,373.864,291.139,374.346,291.09,374.327Z" transform="translate(-279.697 -289.456)"/>
      <path id="Path_3692" data-name="Path 3692" class="cls-5" d="M298.75,334.719a.567.567,0,0,1,.148.068l.433.229a15.679,15.679,0,0,0,1.717.723,13.592,13.592,0,0,0,6.74.581,13.308,13.308,0,0,0,8.378-5.208,11.065,11.065,0,0,0,2.193-5.449,7.414,7.414,0,0,0-.321-3.089,6.3,6.3,0,0,0-1.73-2.65,5.307,5.307,0,0,0-2.823-1.372,3.367,3.367,0,0,0-2.83.8,1.854,1.854,0,0,0-.556,1.279,2.237,2.237,0,0,0,.47,1.322,3.608,3.608,0,0,0,2.471,1.279,9.9,9.9,0,0,0,10.793-6.944,10.756,10.756,0,0,0,.457-2.9,11.053,11.053,0,0,0-.136-1.853c-.037-.191-.068-.352-.086-.476a.87.87,0,0,1,0-.167,7.817,7.817,0,0,1,.371,2.471,10.381,10.381,0,0,1-.408,2.947,10.169,10.169,0,0,1-11.016,7.185,3.886,3.886,0,0,1-2.644-1.384,2.527,2.527,0,0,1-.531-1.507,2.138,2.138,0,0,1,.618-1.5,3.707,3.707,0,0,1,3.089-.89,5.56,5.56,0,0,1,3,1.452,6.511,6.511,0,0,1,1.816,2.786,7.722,7.722,0,0,1,.334,3.213,11.312,11.312,0,0,1-2.267,5.56,13.277,13.277,0,0,1-15.4,4.572A9.565,9.565,0,0,1,298.75,334.719Z" transform="translate(-282.625 -267.382)"/>
      <path id="Path_3693" data-name="Path 3693" class="cls-5" d="M273.25,337.3a1.971,1.971,0,0,1,.4-.494,8.883,8.883,0,0,1,1.3-1.131,10.911,10.911,0,0,1,5.319-1.884,10.283,10.283,0,0,1,3.139.13,9.549,9.549,0,0,1,2.416.853,11.123,11.123,0,0,1,1.47.89,2.077,2.077,0,0,1,.482.408c-.037.049-.754-.494-2.051-1.094a10.071,10.071,0,0,0-5.418-.865,11.4,11.4,0,0,0-5.227,1.748C273.88,336.657,273.293,337.343,273.25,337.3Z" transform="translate(-272.879 -276.11)"/>
      <path id="Path_3694" data-name="Path 3694" class="cls-5" d="M279.48,309.858a9.51,9.51,0,0,0,1.946,1.415A6.933,6.933,0,0,0,283.9,312a6.586,6.586,0,0,0,3.089-.433,6.487,6.487,0,0,0,2.471-1.853,7.1,7.1,0,0,0,1.236-2.267,9.887,9.887,0,0,0,.377-2.379,2.164,2.164,0,0,1,.08.655,6.016,6.016,0,0,1-.241,1.792,6.907,6.907,0,0,1-1.236,2.385,6.314,6.314,0,0,1-5.869,2.422,6.857,6.857,0,0,1-2.552-.816,5.948,5.948,0,0,1-1.433-1.1,1.767,1.767,0,0,1-.34-.55Z" transform="translate(-275.26 -265.158)"/>
      <path id="Path_3695" data-name="Path 3695" class="cls-5" d="M313.4,368.531a2.291,2.291,0,0,1,.049-.457,4.908,4.908,0,0,1,.426-1.236,6.845,6.845,0,0,1,3.6-3.126,10.534,10.534,0,0,1,7.074-.253,6.874,6.874,0,0,1,3.707,2.088,2.218,2.218,0,0,1,.272,2.261,3.583,3.583,0,0,1-1.711,1.612,5.5,5.5,0,0,1-2.28.568,3.342,3.342,0,0,1-2.187-.68,2.793,2.793,0,0,1-.976-1.983,4.986,4.986,0,0,1,.327-2.082,9.354,9.354,0,0,1,4.943-5.017,9.761,9.761,0,0,1,4.733-.816,6.729,6.729,0,0,1,1.73.365c0,.043-.618-.161-1.742-.241a9.885,9.885,0,0,0-7.34,2.7,8.649,8.649,0,0,0-2.07,3.089,4.676,4.676,0,0,0-.3,1.958,2.471,2.471,0,0,0,.877,1.761,3,3,0,0,0,1.977.618,5.1,5.1,0,0,0,2.138-.531,3.3,3.3,0,0,0,1.569-1.464,1.921,1.921,0,0,0-.235-1.946,4.454,4.454,0,0,0-1.612-1.273,11.555,11.555,0,0,0-1.9-.71,10.392,10.392,0,0,0-6.907.179,6.833,6.833,0,0,0-3.571,2.972,6.6,6.6,0,0,0-.587,1.643Z" transform="translate(-288.224 -285.915)"/>
      <path id="Path_3696" data-name="Path 3696" class="cls-5" d="M287.48,381.338c0-.062.914-.136,2.3-.618a11.522,11.522,0,0,0,7.377-8.18c.352-1.433.34-2.366.4-2.36a2.137,2.137,0,0,1,.031.649,9.373,9.373,0,0,1-.21,1.761,11.084,11.084,0,0,1-7.525,8.322,9.507,9.507,0,0,1-1.73.389A2.255,2.255,0,0,1,287.48,381.338Z" transform="translate(-278.318 -290.042)"/>
      <path id="Path_3697" data-name="Path 3697" class="cls-5" d="M274.86,358.257a1.235,1.235,0,0,1,.29-.117c.2-.062.482-.148.859-.247a10.613,10.613,0,0,1,3.281-.334,6.893,6.893,0,0,1,2.224.55,5.159,5.159,0,0,1,2.076,1.631,4.263,4.263,0,0,1,.809,2.8,3.448,3.448,0,0,1-.476,1.508,2.385,2.385,0,0,1-1.236,1.05,1.656,1.656,0,0,1-1.625-.321,2.169,2.169,0,0,1-.562-1.5,6.437,6.437,0,0,1,.568-2.861,6.271,6.271,0,0,1,6.8-3.651,5.043,5.043,0,0,1,.871.216c.192.074.29.117.284.13a9.909,9.909,0,0,0-1.174-.222,6.5,6.5,0,0,0-3.169.408,6.073,6.073,0,0,0-3.318,3.237,6.24,6.24,0,0,0-.525,2.725,1.853,1.853,0,0,0,.47,1.285,1.341,1.341,0,0,0,1.3.247,2.1,2.1,0,0,0,1.087-.914,3.187,3.187,0,0,0,.432-1.365,4.009,4.009,0,0,0-.735-2.607,4.837,4.837,0,0,0-1.946-1.557,6.677,6.677,0,0,0-2.138-.568,11.17,11.17,0,0,0-3.225.229C275.286,358.17,274.872,358.282,274.86,358.257Z" transform="translate(-273.495 -284.884)"/>
      <g id="Group_1374" data-name="Group 1374" class="cls-9" transform="translate(15.674 63.062)">
        <path id="Path_3698" data-name="Path 3698" d="M319.211,366.833c-2.57-1.452-5.085-2.57-7.772-3.787a17.6,17.6,0,0,1-7.086-5.165c-3.318-4.473-2.941-10.929-6.333-15.34q.334,4.448.661,8.9c.2,2.718-.21,5.412,1.538,7.259,1.477,1.557,4.356,2.749,6.394,3.423,4.1,1.353,8.507,3.361,12.6,4.708" transform="translate(-298.02 -342.54)"/>
      </g>
      <path id="Path_3699" data-name="Path 3699" class="cls-7" d="M397.118,436.71s20.122,5.56,20.932,5.857c1.236.426,1.007,4.868-.877,4.794-.9-.031-15.445.544-17.3.432s-7.414-2.3-7.414-2.3Z" transform="translate(-318.439 -315.468)"/>
      <path id="Path_3700" data-name="Path 3700" class="cls-6" d="M413.529,446.656a17.733,17.733,0,0,1,.89-2.162,18.035,18.035,0,0,1,1.421-1.854,4.448,4.448,0,0,0-2.311,4.01Z" transform="translate(-326.491 -317.734)"/>
      <path id="Path_3701" data-name="Path 3701" class="cls-6" d="M410.13,445.227c.1,0,.3-.933.84-1.983s1.168-1.786,1.1-1.853a5.035,5.035,0,0,0-1.94,3.843Z" transform="translate(-325.192 -317.257)"/>
      <path id="Path_3702" data-name="Path 3702" class="cls-6" d="M406.936,444.27a13.419,13.419,0,0,1,.469-2.125,14.128,14.128,0,0,1,1.094-1.884,3.775,3.775,0,0,0-1.563,4.01Z" transform="translate(-323.932 -316.825)"/>
      <path id="Path_3703" data-name="Path 3703" class="cls-6" d="M406.552,439.65a3.59,3.59,0,0,0,.216-1.5,7.416,7.416,0,0,0-.2-1.643,6.547,6.547,0,0,0-.3-.933,1.063,1.063,0,0,0-.321-.494.544.544,0,0,0-.692.037.871.871,0,0,0-.266.568,3.1,3.1,0,0,0,0,.531,4.153,4.153,0,0,0,.124.982,5.992,5.992,0,0,0,.618,1.538,4.139,4.139,0,0,0,.9,1.236c.049,0-.29-.5-.692-1.322a6.576,6.576,0,0,1-.525-1.5,4.422,4.422,0,0,1-.1-.921c0-.309,0-.692.185-.84a.2.2,0,0,1,.266,0,.909.909,0,0,1,.222.352,7.975,7.975,0,0,1,.3.89,7.851,7.851,0,0,1,.266,1.569C406.589,439.075,406.5,439.643,406.552,439.65Z" transform="translate(-323.221 -314.806)"/>
      <path id="Path_3704" data-name="Path 3704" class="cls-6" d="M405,442.075a2.824,2.824,0,0,0-1.3-.21,5.963,5.963,0,0,0-1.427.173,3.465,3.465,0,0,0-.828.3.853.853,0,0,0-.451.921,1.02,1.02,0,0,0,.723.723,1.854,1.854,0,0,0,.9,0,3.373,3.373,0,0,0,1.31-.618,3.5,3.5,0,0,0,.933-.921,9.882,9.882,0,0,0-1.069.723,3.545,3.545,0,0,1-1.236.537,1.532,1.532,0,0,1-.748,0,.68.68,0,0,1-.488-.476.525.525,0,0,1,.3-.562,2.979,2.979,0,0,1,.729-.284,6.473,6.473,0,0,1,1.359-.235C404.5,442.051,404.992,442.131,405,442.075Z" transform="translate(-321.697 -317.435)"/>
      <path id="Path_3705" data-name="Path 3705" class="cls-6" d="M418.451,447.392a11.9,11.9,0,0,1,.4-1.816,10.979,10.979,0,0,1,.982-1.575A2.9,2.9,0,0,0,418.451,447.392Z" transform="translate(-328.324 -318.254)"/>
      <path id="Path_3706" data-name="Path 3706" class="cls-6" d="M395.81,451a3.6,3.6,0,0,0,.778.371,18.646,18.646,0,0,0,2.236.692,32.187,32.187,0,0,0,7.686.729c3.015-.037,5.733-.173,7.7-.253l2.329-.124a5.092,5.092,0,0,0,.853-.086,4.072,4.072,0,0,0-.859-.043h-2.329l-7.7.148a36.024,36.024,0,0,1-7.63-.618C396.953,451.422,395.835,450.928,395.81,451Z" transform="translate(-319.719 -320.926)"/>
      <path id="Path_3707" data-name="Path 3707" class="cls-6" d="M394.85,450.7c0,.043.575-.278,1.508-.686a6.97,6.97,0,0,1,3.806-.618,6.055,6.055,0,0,1,3.293,1.952,11.831,11.831,0,0,0,1.155,1.186,6.178,6.178,0,0,0-.982-1.347,8.028,8.028,0,0,0-1.334-1.236,4.781,4.781,0,0,0-2.082-.877,6.666,6.666,0,0,0-3.96.747A5.147,5.147,0,0,0,394.85,450.7Z" transform="translate(-319.352 -320.177)"/>
      <path id="Path_3708" data-name="Path 3708" class="cls-7" d="M352.954,427.72s-19.041,12.468-19.721,12.974c-1.026.772.148,4.461,1.928,3.824.84-.3,16.817-4.751,18.535-5.418s6.345-4.411,6.345-4.411Z" transform="translate(-295.658 -312.032)"/>
      <path id="Path_3709" data-name="Path 3709" class="cls-6" d="M354.123,441.75a4.454,4.454,0,0,0-3.423-3.12,17.5,17.5,0,0,1,1.921,1.334A18.7,18.7,0,0,1,354.123,441.75Z" transform="translate(-302.479 -316.202)"/>
      <path id="Path_3710" data-name="Path 3710" class="cls-6" d="M357.137,439.269a5.048,5.048,0,0,0-3.009-3.089c-.049.087.785.618,1.606,1.433S357.051,439.318,357.137,439.269Z" transform="translate(-303.789 -315.266)"/>
      <path id="Path_3711" data-name="Path 3711" class="cls-6" d="M360.121,437.34a3.751,3.751,0,0,0-2.681-3.33,14.657,14.657,0,0,1,1.613,1.464A13.544,13.544,0,0,1,360.121,437.34Z" transform="translate(-305.055 -314.436)"/>
      <path id="Path_3712" data-name="Path 3712" class="cls-6" d="M359.38,432.623c.049,0-.21-.538-.426-1.427a7.759,7.759,0,0,1-.229-1.575,6.948,6.948,0,0,1,0-.939.773.773,0,0,1,.105-.4.191.191,0,0,1,.259-.062c.216.086.327.457.432.754a4.775,4.775,0,0,1,.185.9,6.575,6.575,0,0,1-.049,1.588c-.13.9-.309,1.452-.26,1.47a4,4,0,0,0,.494-1.433,5.894,5.894,0,0,0,.124-1.65,4.655,4.655,0,0,0-.179-.976,4.09,4.09,0,0,0-.185-.5.89.89,0,0,0-.432-.463.537.537,0,0,0-.667.179,1.1,1.1,0,0,0-.154.568,6.931,6.931,0,0,0,.3,2.607,3.634,3.634,0,0,0,.686,1.359Z" transform="translate(-305.413 -312.085)"/>
      <path id="Path_3713" data-name="Path 3713" class="cls-6" d="M359.89,434.723c0,.049.47-.173,1.236-.365a6.885,6.885,0,0,1,1.365-.185,3.018,3.018,0,0,1,.785.049.537.537,0,0,1,.457.445.692.692,0,0,1-.327.618,1.564,1.564,0,0,1-.7.235,3.416,3.416,0,0,1-1.341-.136,9.01,9.01,0,0,0-1.236-.365,3.52,3.52,0,0,0,1.174.618,3.386,3.386,0,0,0,1.44.216,1.792,1.792,0,0,0,.859-.272,1,1,0,0,0,.476-.9.853.853,0,0,0-.711-.741,3.306,3.306,0,0,0-.877-.037,6.069,6.069,0,0,0-1.415.266A2.859,2.859,0,0,0,359.89,434.723Z" transform="translate(-305.991 -314.39)"/>
      <path id="Path_3714" data-name="Path 3714" class="cls-6" d="M339.264,450.892c0,.031.321-.192.47-.735a2.854,2.854,0,0,0-.358-2.07,7.948,7.948,0,0,0-.618-.951,3.705,3.705,0,0,0-.649-.692,1.124,1.124,0,0,0-.618-.253c-.161,0-.241.031-.241.049a1.4,1.4,0,0,1,.692.389,4.087,4.087,0,0,1,.55.692,10.893,10.893,0,0,1,.618.927,2.941,2.941,0,0,1,.42,1.853A6.894,6.894,0,0,1,339.264,450.892Z" transform="translate(-297.339 -319.091)"/>
      <path id="Path_3715" data-name="Path 3715" class="cls-6" d="M350.128,443.795a2.329,2.329,0,0,0-.673-1.823,2.292,2.292,0,0,0-1.674-.982,10.848,10.848,0,0,1,1.415,1.2A11.023,11.023,0,0,1,350.128,443.795Z" transform="translate(-301.363 -317.104)"/>
      <path id="Path_3716" data-name="Path 3716" class="cls-6" d="M358.812,440.07a5.835,5.835,0,0,0-.84.568,24.256,24.256,0,0,1-2.348,1.44,30.725,30.725,0,0,1-3.707,1.662c-1.446.538-3.089,1.044-4.77,1.538-3.429.989-6.53,1.891-8.767,2.564l-2.663.834a5.827,5.827,0,0,0-.958.346,6.441,6.441,0,0,0,.995-.216l2.675-.748c2.255-.618,5.363-1.483,8.792-2.471,1.711-.5,3.336-1.019,4.782-1.575a28.308,28.308,0,0,0,3.738-1.742,18.841,18.841,0,0,0,2.311-1.545,6.05,6.05,0,0,0,.76-.655Z" transform="translate(-296.387 -316.752)"/>
      <path id="Path_3717" data-name="Path 3717" class="cls-6" d="M369.43,440.143a5.486,5.486,0,0,0-1.612-.432,6.7,6.7,0,0,0-4,.494,4.726,4.726,0,0,0-1.693,1.5,8.034,8.034,0,0,0-.9,1.594,6,6,0,0,0-.525,1.582,12.481,12.481,0,0,0,.741-1.483,6.048,6.048,0,0,1,2.545-2.867,6.988,6.988,0,0,1,3.818-.55C368.793,440.057,369.417,440.193,369.43,440.143Z" transform="translate(-306.301 -316.572)"/>
      <path id="Path_3718" data-name="Path 3718" class="cls-6" d="M395.927,377.878a9.11,9.11,0,0,1,5.733,8.446c.049,12.264-24.787,25.788-24.787,25.788l-33.053-21.9-2.07-.84S386.387,372.621,395.927,377.878Z" transform="translate(-299.059 -292.594)"/>
      <path id="Path_3719" data-name="Path 3719" class="cls-10" d="M372.2,405.74a6.114,6.114,0,0,0,.865-.581c.538-.4,1.31-.976,2.255-1.711,1.9-1.458,4.467-3.534,7.241-5.913s5.208-4.609,6.938-6.259c.865-.822,1.557-1.5,2.033-1.977a5.83,5.83,0,0,0,.7-.76,6.041,6.041,0,0,0-.8.667l-2.1,1.9c-1.773,1.6-4.232,3.806-7,6.178s-5.313,4.473-7.161,5.98l-2.193,1.792A6.544,6.544,0,0,0,372.2,405.74Z" transform="translate(-310.696 -297.059)"/>
      <path id="Path_3720" data-name="Path 3720" class="cls-10" d="M410.618,385.9a8.211,8.211,0,0,0-6.018,1.773c.056.093,1.236-.68,2.928-1.161S410.618,386.007,410.618,385.9Z" transform="translate(-323.079 -296.033)"/>
      <path id="Path_3721" data-name="Path 3721" class="cls-10" d="M407.88,382.8a5.054,5.054,0,0,0-2.99,3.707,23.489,23.489,0,0,1,1.291-2.014C407.015,383.473,407.936,382.886,407.88,382.8Z" transform="translate(-323.19 -294.865)"/>
      <path id="Path_3722" data-name="Path 3722" class="cls-6" d="M431.238,445.659c0-.037-.4-.117-.853.259a3.04,3.04,0,0,0-.951,1.915,3.763,3.763,0,0,0,.3,2.119c.235.5.494.735.525.71a5.962,5.962,0,0,0-.3-.8,4.27,4.27,0,0,1-.185-1.977,3.312,3.312,0,0,1,.778-1.792C430.9,445.727,431.244,445.715,431.238,445.659Z" transform="translate(-332.554 -318.876)"/>
      <path id="Path_3723" data-name="Path 3723" class="cls-10" d="M377.918,346.06,366.149,375.9l-50.68.828-.939-2.743,17.762-.642,8.538-26.474Z" transform="translate(-288.656 -280.824)"/>
      <path id="Path_3724" data-name="Path 3724" class="cls-3" d="M378.22,366.851a2.261,2.261,0,0,1,2.44.266,1.958,1.958,0,0,1,.476,2.156,2.132,2.132,0,0,1-1.853,1.279,1.928,1.928,0,0,1-1.94-1.279,2.181,2.181,0,0,1,.853-2.422" transform="translate(-312.627 -288.678)"/>
      <path id="Path_3725" data-name="Path 3725" class="cls-6" d="M358.725,415.328s-46.695-30.631-48.6-31.268-6.537-3.664-11.152-2.391-8.767,5.418-10.837,11.473c-1.186,3.46-1.742,9.36-2.008,13.79a20.48,20.48,0,0,0,4.788,14.581,13.03,13.03,0,0,0,5.82,4.133c.488.154.995.284,1.514.4a21.946,21.946,0,0,0,22.859-9.6l1.087-1.656s30.551,11.22,31.027,11.065Z" transform="translate(-277.785 -294.314)"/>
      <path id="Path_3726" data-name="Path 3726" class="cls-10" d="M310.16,408.156a2.63,2.63,0,0,0,.253.111l.766.3,2.959,1.143,11,4.146c4.671,1.742,10.268,3.818,16.551,6.1s13.24,4.788,20.678,7.3l.13.049.068-.13,3.651-6.969,1.853-3.553.068-.136-.13-.08L332.4,393.835l-10.7-6.747-2.9-1.816-.76-.463c-.173-.105-.266-.148-.266-.148l.247.179.741.488,2.873,1.853,10.676,6.852,35.562,22.7-.062-.222c-.587,1.131-1.236,2.335-1.853,3.552L362.3,427.03l.2-.08c-7.414-2.508-14.4-5-20.685-7.272l-16.576-6.03-11.065-4.065L311.2,408.5l-.778-.272Z" transform="translate(-286.986 -295.576)"/>
      <path id="Path_3727" data-name="Path 3727" class="cls-6" d="M312.732,244.281c.8-2.156,2.558-3.089,4.788-3.627a7.154,7.154,0,0,1,6.407,1.65c1.131,1.032,1.958,2.471,3.355,3.089,2.3,1.044,5.251-.482,7.414.8a3.262,3.262,0,0,1-2.1,6.042c1.5.7,1.779,2.966.748,4.263a4.349,4.349,0,0,1-4.541,1.2,9.168,9.168,0,0,1-4.047-2.786c-1.124-1.236-2.113-2.564-3.336-3.707a7.1,7.1,0,0,0-4.4-2.088,6.5,6.5,0,0,0-5.492,3.336,16.826,16.826,0,0,0-1.946,6.4,27.4,27.4,0,0,1-1.433,6.561c-.1.247-.247.513-.5.568-.377.08-.649-.334-.8-.686a32.912,32.912,0,0,1-2.632-12.542c-.031-2.471.253-4.838,1.8-6.8s5.128-3.176,6.691-1.705" transform="translate(-284.714 -240.468)"/>
      <path id="Path_3728" data-name="Path 3728" class="cls-11" d="M307.312,256.073l-3.435,24.948a7.494,7.494,0,0,0,6.8,8.483h0a7.5,7.5,0,0,0,8.081-6.456c.253-1.853.47-3.441.513-3.633,0,0,6.432.278,7.754-5.943.618-3.009,1.452-9.311,2.125-15.019a11.85,11.85,0,0,0-9.453-12.974l-.618-.117C312.5,244.421,308.048,249.488,307.312,256.073Z" transform="translate(-284.558 -242.295)"/>
      <path id="Path_3729" data-name="Path 3729" class="cls-12" d="M324.077,297.96A14.828,14.828,0,0,1,316.41,294s1.026,4.868,7.358,5.56Z" transform="translate(-289.374 -260.927)"/>
      <path id="Path_3730" data-name="Path 3730" class="cls-6" d="M339.356,272.181a.9.9,0,0,1-1.038.723.859.859,0,0,1-.754-.982.9.9,0,0,1,1.038-.729.865.865,0,0,1,.754.989Z" transform="translate(-297.455 -252.206)"/>
      <path id="Path_3731" data-name="Path 3731" class="cls-6" d="M339.418,270.308c-.136.1-.71-.537-1.668-.729s-1.761.154-1.853,0,.117-.247.47-.408a2.422,2.422,0,0,1,1.5-.154,2.367,2.367,0,0,1,1.3.723C339.424,270.036,339.48,270.27,339.418,270.308Z" transform="translate(-296.813 -251.358)"/>
      <path id="Path_3732" data-name="Path 3732" class="cls-6" d="M324.033,269.662a.9.9,0,0,1-1.038.729.877.877,0,0,1-.76-.988.92.92,0,0,1,1.038-.729.871.871,0,0,1,.76.989Z" transform="translate(-291.597 -251.244)"/>
      <path id="Path_3733" data-name="Path 3733" class="cls-6" d="M324.108,267.555c-.136.093-.71-.544-1.668-.735s-1.761.154-1.853,0,.117-.247.47-.408a2.5,2.5,0,0,1,2.8.568C324.114,267.314,324.17,267.512,324.108,267.555Z" transform="translate(-290.962 -250.305)"/>
      <path id="Path_3734" data-name="Path 3734" class="cls-6" d="M329.63,276a6.209,6.209,0,0,1,1.612.031c.253,0,.494,0,.568-.142a1.236,1.236,0,0,0,0-.754c-.111-.618-.229-1.31-.352-2.014a33.347,33.347,0,0,1-.655-5.2,30.162,30.162,0,0,1,1.069,5.134c.111.7.222,1.372.321,2.014a1.421,1.421,0,0,1-.068.988.618.618,0,0,1-.47.272,1.518,1.518,0,0,1-.426,0,6.56,6.56,0,0,1-1.6-.334Z" transform="translate(-294.427 -250.964)"/>
      <path id="Path_3735" data-name="Path 3735" class="cls-6" d="M324.67,281.179c.161,0-.049,1.063.692,1.977s1.853,1.026,1.853,1.174-.284.148-.754.068a2.663,2.663,0,0,1-1.563-.914,2.317,2.317,0,0,1-.513-1.65C324.435,281.389,324.6,281.154,324.67,281.179Z" transform="translate(-292.419 -256.026)"/>
      <path id="Path_3736" data-name="Path 3736" class="cls-6" d="M325.151,261.659c-.142.247-1.075-.068-2.23-.161s-2.119.037-2.224-.229c-.043-.124.167-.334.581-.513a3.768,3.768,0,0,1,1.73-.247,3.707,3.707,0,0,1,1.668.544C325.052,261.3,325.207,261.548,325.151,261.659Z" transform="translate(-291.01 -248.122)"/>
      <path id="Path_3737" data-name="Path 3737" class="cls-6" d="M339.933,265.688c-.21.185-.822-.173-1.619-.346s-1.5-.142-1.6-.4c-.049-.124.1-.321.439-.47a2.292,2.292,0,0,1,1.39-.093,2.23,2.23,0,0,1,1.2.7C339.976,265.355,340.032,265.6,339.933,265.688Z" transform="translate(-297.131 -249.581)"/>
      <path id="Path_3738" data-name="Path 3738" class="cls-11" d="M305.823,270.069c-.1-.068-4.034-2.125-4.751,2.169s3.744,4.127,3.769,4S305.823,270.069,305.823,270.069Z" transform="translate(-283.482 -251.57)"/>
      <path id="Path_3739" data-name="Path 3739" class="cls-12" d="M304.474,275.212a1.12,1.12,0,0,1-.216.08.772.772,0,0,1-.562-.08,1.853,1.853,0,0,1-.581-1.8,2.471,2.471,0,0,1,.389-1.038.883.883,0,0,1,.636-.5.389.389,0,0,1,.408.284.361.361,0,0,1,0,.216c0,.006.1-.056.1-.235a.488.488,0,0,0-.124-.3.543.543,0,0,0-.4-.179,1.063,1.063,0,0,0-.89.531,2.606,2.606,0,0,0-.463,1.155,1.954,1.954,0,0,0,.785,2.033.809.809,0,0,0,.7,0C304.449,275.317,304.486,275.225,304.474,275.212Z" transform="translate(-284.154 -252.389)"/>
      <path id="Path_3740" data-name="Path 3740" class="cls-6" d="M332.273,256.894a9.193,9.193,0,0,1-7.642-3.4c-1.236-1.594-2.057-3.676-3.843-4.64a5.184,5.184,0,0,0-3.985-.247,10.064,10.064,0,0,0-3.472,2.113c.568,3.41-.945,6.8-2.422,9.885a1.724,1.724,0,0,1-.7.883c-.581.29-1.273-.167-1.625-.717a5.387,5.387,0,0,1-.618-3.009,17.983,17.983,0,0,1,1.421-6.907,12.189,12.189,0,0,1,4.492-5.375,11.547,11.547,0,0,1,8.532-1.415,14.21,14.21,0,0,1,7.482,4.492,8.347,8.347,0,0,1,2.02,3.54" transform="translate(-286.14 -241.738)"/>
    </g>
    <g id="freepik--Plant--inject-2" transform="translate(38.379 175.49)">
      <path id="Path_3741" data-name="Path 3741" class="cls-6" d="M61.015,363.277a1.236,1.236,0,0,1,.111-.259l.346-.748a19.091,19.091,0,0,0,1.032-2.99,26.365,26.365,0,0,0-.093-11.535,61.2,61.2,0,0,0-2.138-7.754c-.908-2.749-1.958-5.665-2.817-8.822a34.215,34.215,0,0,1-1.39-10.145,39.72,39.72,0,0,1,2.36-10.738,51.751,51.751,0,0,0,2.731-10.571,16.063,16.063,0,0,0-1.934-9.761c-1.551-2.854-3.491-5.289-4.943-7.815a27.185,27.185,0,0,1-2.978-7.506A28.018,28.018,0,0,1,51.117,263a21.988,21.988,0,0,1,1.236-4.108,1.639,1.639,0,0,1-.068.278l-.247.785a27.771,27.771,0,0,0-.451,14.618,26.838,26.838,0,0,0,2.984,7.414c1.452,2.471,3.4,4.943,4.98,7.8a16.459,16.459,0,0,1,1.971,9.947,52.279,52.279,0,0,1-2.743,10.651,39.716,39.716,0,0,0-2.348,10.633,33.98,33.98,0,0,0,1.353,10.046c.846,3.138,1.891,6.055,2.78,8.816a60.781,60.781,0,0,1,2.107,7.8,26.58,26.58,0,0,1,0,11.621,16.966,16.966,0,0,1-1.1,2.984c-.161.309-.29.55-.383.735a1.619,1.619,0,0,1-.173.259Z" transform="translate(-43.048 -258.89)"/>
      <path id="Path_3742" data-name="Path 3742" class="cls-7" d="M59.241,291.213s-2.959-9.453,2.348-14.988a.327.327,0,0,1,.562.161C62.435,277.949,62.787,282.706,59.241,291.213Z" transform="translate(-46.038 -265.475)"/>
      <path id="Path_3743" data-name="Path 3743" class="cls-6" d="M61.457,281.39a8.823,8.823,0,0,1-.2,1.742c-.192,1.236-.42,2.613-.673,4.17s-.47,2.972-.661,4.17a9.266,9.266,0,0,1-.315,1.73,7.581,7.581,0,0,1,.056-1.761c.1-1.081.29-2.564.556-4.2s.55-3.089.785-4.158a7.662,7.662,0,0,1,.457-1.7Z" transform="translate(-46.48 -267.489)"/>
      <path id="Path_3744" data-name="Path 3744" class="cls-7" d="M65.37,329.129s1.81-9.743,9.088-12.14a.327.327,0,0,1,.42.408C74.409,318.892,72.487,323.266,65.37,329.129Z" transform="translate(-48.695 -281.087)"/>
      <path id="Path_3745" data-name="Path 3745" class="cls-6" d="M72.425,321.05a8.8,8.8,0,0,1-.995,1.446c-.729.976-1.594,2.113-2.545,3.373l-2.558,3.379a9.532,9.532,0,0,1-1.087,1.378,7.567,7.567,0,0,1,.871-1.532c.618-.908,1.452-2.132,2.471-3.447s1.94-2.471,2.638-3.312A7.638,7.638,0,0,1,72.425,321.05Z" transform="translate(-48.645 -282.646)"/>
      <path id="Path_3746" data-name="Path 3746" class="cls-7" d="M62.144,367.333s-1.1-9.848,5.165-14.272a.327.327,0,0,1,.519.272C67.809,354.915,67.247,359.654,62.144,367.333Z" transform="translate(-47.433 -294.857)"/>
      <path id="Path_3747" data-name="Path 3747" class="cls-6" d="M66.157,357.93a8.315,8.315,0,0,1-.531,1.674l-1.458,3.966-1.44,3.966a9.145,9.145,0,0,1-.618,1.637,7.909,7.909,0,0,1,.389-1.718c.3-1.044.772-2.471,1.347-4.016s1.137-2.935,1.563-3.929a7.729,7.729,0,0,1,.748-1.582Z" transform="translate(-47.449 -296.741)"/>
      <path id="Path_3748" data-name="Path 3748" class="cls-7" d="M71.043,407.258s-.748-9.885,5.672-14.074a.327.327,0,0,1,.513.284C77.148,395.044,76.419,399.758,71.043,407.258Z" transform="translate(-50.853 -310.193)"/>
      <path id="Path_3749" data-name="Path 3749" class="cls-6" d="M75.436,398a8.556,8.556,0,0,1-.618,1.656c-.463,1.124-1,2.471-1.6,3.9l-1.588,3.917a9.422,9.422,0,0,1-.63,1.582,7.482,7.482,0,0,1,.451-1.7c.334-1.032.859-2.434,1.489-3.96s1.236-2.9,1.7-3.874A7.833,7.833,0,0,1,75.436,398Z" transform="translate(-50.846 -312.055)"/>
      <path id="Path_3750" data-name="Path 3750" class="cls-7" d="M47.332,279.32s-8.779-4.584-8.952-12.251a.327.327,0,0,1,.513-.284C40.2,267.686,43.81,270.794,47.332,279.32Z" transform="translate(-38.379 -261.885)"/>
      <path id="Path_3751" data-name="Path 3751" class="cls-6" d="M41.33,271.54a8.589,8.589,0,0,1,1.094,1.372l2.471,3.423,2.471,3.417a9.679,9.679,0,0,1,1,1.44,7,7,0,0,1-1.236-1.279c-.7-.828-1.619-2.014-2.582-3.355s-1.8-2.582-2.391-3.5a7.584,7.584,0,0,1-.828-1.52Z" transform="translate(-39.507 -263.725)"/>
      <path id="Path_3752" data-name="Path 3752" class="cls-7" d="M62.14,312.553s-9.039-4.041-9.681-11.683a.327.327,0,0,1,.494-.309C54.313,301.358,58.112,304.243,62.14,312.553Z" transform="translate(-43.76 -274.798)"/>
      <path id="Path_3753" data-name="Path 3753" class="cls-6" d="M55.67,305.14a8.789,8.789,0,0,1,1.174,1.3l2.681,3.268,2.688,3.256a8.956,8.956,0,0,1,1.075,1.353,7.957,7.957,0,0,1-1.279-1.236c-.748-.791-1.736-1.915-2.78-3.194s-1.958-2.471-2.595-3.342A7.551,7.551,0,0,1,55.67,305.14Z" transform="translate(-44.988 -276.566)"/>
      <path id="Path_3754" data-name="Path 3754" class="cls-7" d="M57.191,347.339s-6.209-7.723-3.293-14.828a.327.327,0,0,1,.581-.056C55.313,333.822,57.37,338.115,57.191,347.339Z" transform="translate(-44.013 -286.948)"/>
      <path id="Path_3755" data-name="Path 3755" class="cls-6" d="M55.37,337.75a8.562,8.562,0,0,1,.451,1.693c.259,1.192.562,2.589.9,4.133s.618,2.935.908,4.121a9.682,9.682,0,0,1,.34,1.724,7.074,7.074,0,0,1-.618-1.656c-.309-1.044-.673-2.471-1.019-4.115s-.618-3.089-.791-4.152A8.032,8.032,0,0,1,55.37,337.75Z" transform="translate(-44.873 -289.029)"/>
      <path id="Path_3756" data-name="Path 3756" class="cls-7" d="M63.8,392.234s-8.977-4.189-9.484-11.85a.327.327,0,0,1,.494-.3C56.161,380.928,59.911,383.875,63.8,392.234Z" transform="translate(-44.471 -305.189)"/>
      <path id="Path_3757" data-name="Path 3757" class="cls-6" d="M57.45,384.73a8.652,8.652,0,0,1,1.155,1.322c.754.958,1.643,2.076,2.626,3.311l2.632,3.305a9.689,9.689,0,0,1,1.063,1.4,7.33,7.33,0,0,1-1.236-1.236c-.729-.8-1.7-1.94-2.718-3.237s-1.946-2.5-2.564-3.38a8.24,8.24,0,0,1-.958-1.483Z" transform="translate(-45.668 -306.984)"/>
      <path id="Path_3758" data-name="Path 3758" class="cls-6" d="M88,336.73a.958.958,0,0,1,0,.222c0,.173,0,.377,0,.618,0,.618-.062,1.4-.105,2.4-.117,2.113-.278,5.054-.47,8.582h0a32.55,32.55,0,0,1-4.943,11.411c-1.8,2.842-3.707,5.431-5.307,7.834a55.328,55.328,0,0,0-3.985,6.58,27.625,27.625,0,0,0-1.853,4.831c-.161.587-.278,1.05-.346,1.365a2.469,2.469,0,0,1-.13.476,2.428,2.428,0,0,1,.056-.488c.043-.321.142-.791.278-1.39a25.778,25.778,0,0,1,1.767-4.943,53.059,53.059,0,0,1,3.936-6.654c1.612-2.422,3.491-5.01,5.282-7.834a33.8,33.8,0,0,0,4.943-11.281h0c.247-3.515.451-6.456.618-8.569.08-1,.148-1.8.192-2.4a4.577,4.577,0,0,1,.068-.618.691.691,0,0,1,0-.148Z" transform="translate(-50.793 -288.639)"/>
      <path id="Path_3759" data-name="Path 3759" class="cls-7" d="M88.755,363.754s3.8-9.15-.982-15.143a.327.327,0,0,0-.575.111C86.747,350.254,85.962,354.981,88.755,363.754Z" transform="translate(-56.863 -293.131)"/>
      <path id="Path_3760" data-name="Path 3760" class="cls-6" d="M88.815,353.86a8.031,8.031,0,0,1,.3,1.73c.136,1.075.284,2.564.4,4.214s.173,3.145.173,4.226a7.074,7.074,0,0,1-.105,1.755,9.09,9.09,0,0,1-.154-1.742c-.08-1.236-.179-2.638-.284-4.214s-.21-3-.29-4.214A8.921,8.921,0,0,1,88.815,353.86Z" transform="translate(-57.646 -295.186)"/>
      <g id="Group_1375" data-name="Group 1375" class="cls-9" transform="translate(29.879 55.353)">
        <path id="Path_3761" data-name="Path 3761" d="M88.755,363.754s3.8-9.15-.982-15.143a.327.327,0,0,0-.575.111C86.747,350.254,85.962,354.981,88.755,363.754Z" transform="translate(-86.742 -348.483)"/>
      </g>
      <path id="Path_3762" data-name="Path 3762" class="cls-7" d="M69.07,399.531s3.046-9.422-2.206-15.007a.327.327,0,0,0-.562.154C66,386.235,65.6,390.986,69.07,399.531Z" transform="translate(-48.978 -306.864)"/>
      <path id="Path_3763" data-name="Path 3763" class="cls-6" d="M68.21,389.69a7.821,7.821,0,0,1,.439,1.705c.222,1.056.494,2.527.748,4.164s.426,3.12.513,4.2a7.24,7.24,0,0,1,.037,1.761,9.786,9.786,0,0,1-.3-1.73c-.179-1.236-.389-2.613-.618-4.176s-.451-2.972-.618-4.176A8.946,8.946,0,0,1,68.21,389.69Z" transform="translate(-49.78 -308.879)"/>
      <g id="Group_1376" data-name="Group 1376" class="cls-9" transform="translate(17.133 77.553)">
        <path id="Path_3764" data-name="Path 3764" d="M69.07,399.531s3.046-9.422-2.206-15.007a.327.327,0,0,0-.562.154C66,386.235,65.6,390.986,69.07,399.531Z" transform="translate(-66.111 -384.418)"/>
      </g>
      <path id="Path_3765" data-name="Path 3765" class="cls-7" d="M97.78,346.693s8.118-5.684,7.3-13.308a.327.327,0,0,0-.544-.216C103.359,334.269,100.171,337.784,97.78,346.693Z" transform="translate(-61.081 -287.246)"/>
      <g id="Group_1377" data-name="Group 1377" class="cls-9" transform="translate(36.699 45.84)">
        <path id="Path_3766" data-name="Path 3766" d="M97.78,346.693s8.118-5.684,7.3-13.308a.327.327,0,0,0-.544-.216C103.359,334.269,100.171,337.784,97.78,346.693Z" transform="translate(-97.78 -333.086)"/>
      </g>
      <path id="Path_3767" data-name="Path 3767" class="cls-6" d="M103.662,338.18a7.935,7.935,0,0,1-.673,1.619c-.463.982-1.137,2.317-1.921,3.775s-1.538,2.749-2.125,3.664a6.754,6.754,0,0,1-1.032,1.421,9.84,9.84,0,0,1,.809-1.557l2.02-3.707,2.014-3.707a8.545,8.545,0,0,1,.908-1.507Z" transform="translate(-61.131 -289.193)"/>
      <path id="Path_3768" data-name="Path 3768" class="cls-7" d="M76.19,388.084s9.768-1.526,12.412-8.73a.327.327,0,0,0-.4-.432C86.681,379.355,82.251,381.14,76.19,388.084Z" transform="translate(-52.83 -304.759)"/>
      <g id="Group_1378" data-name="Group 1378" class="cls-9" transform="translate(23.36 74.15)">
        <path id="Path_3769" data-name="Path 3769" d="M76.19,388.084s9.768-1.526,12.412-8.73a.327.327,0,0,0-.4-.432C86.681,379.355,82.251,381.14,76.19,388.084Z" transform="translate(-76.19 -378.91)"/>
      </g>
      <path id="Path_3770" data-name="Path 3770" class="cls-6" d="M86.078,382.72a8.279,8.279,0,0,1-1.31,1.155c-.846.68-2.039,1.582-3.386,2.539s-2.595,1.792-3.515,2.36a7.308,7.308,0,0,1-1.557.822,9.655,9.655,0,0,1,1.409-1.044l3.454-2.434,3.441-2.471A8.351,8.351,0,0,1,86.078,382.72Z" transform="translate(-52.876 -306.215)"/>
      <path id="Path_3771" data-name="Path 3771" class="cls-10" d="M59.314,422.92,56.46,442.134H74.253L71.943,422.92Z" transform="translate(-45.29 -321.579)"/>
      <path id="Path_3772" data-name="Path 3772" class="cls-6" d="M73.8,432.422a68.766,68.766,0,0,1-7.179.185,68.594,68.594,0,0,1-7.173-.185,70.776,70.776,0,0,1,7.173-.185A70.861,70.861,0,0,1,73.8,432.422Z" transform="translate(-46.432 -325.131)"/>
      <path id="Path_3773" data-name="Path 3773" class="cls-6" d="M74.078,434.885c0,.1-3.318.185-7.414.185s-7.414-.086-7.414-.185,3.318-.185,7.414-.185S74.078,434.8,74.078,434.885Z" transform="translate(-46.356 -326.081)"/>
    </g>
  </g>
</svg>
